<?xml version="1.0" encoding="UTF-8"?>
<svg id="Layer_1" xmlns="http://www.w3.org/2000/svg" version="1.1" viewBox="0 0 1024 1024">
  <!-- Generator: Adobe Illustrator 30.2.1, SVG Export Plug-In . SVG Version: 2.1.1 Build 1)  -->
  <defs>
    <style>
      .st0 {
        fill: #c6ff00;
      }

      .st1 {
        fill: #3340ca;
      }

      .st2 {
        fill: #0a0b1f;
      }
    </style>
  </defs>
  <circle class="st0" cx="512" cy="512" r="509"/>
  <g>
    <path class="st2" d="M627.9,615c-1,21-5.1,39.9-13.4,55.8-9.4,18.1-22.7,31.9-40.1,41.5-17.3,9.5-37.6,14.3-60.7,14.3s-44-4.4-61.9-13.1c-17.8-8.7-31.5-21.2-41.2-37.5s-14.5-35-14.5-56.2v-201c0-24.1,4.8-45.3,14.3-63.7,9.5-18.4,23-32.6,40.3-42.6s37.4-15,60.2-15,30.7,2.7,45.2,8.2,27.2,13.4,38,23.9c10.4,10.1,17.9,22,22.7,35.7,0,0-.5,1.6,3.4,1.6h133.9c2.4,0,1.6-2,1.6-2-8.2-39.5-23.6-74.2-46.2-104.3-23-30.6-51.6-54.3-86-71-34.4-16.7-71.8-25.1-112.5-25.1s-92.8,10.5-130.3,31.6c-37.5,21.1-66.5,50.8-86.9,89.3-20.5,38.4-30.7,82.9-30.7,133.5v201c0,47.8,10.4,89.8,31.2,126,20.8,36.2,50.1,64.3,88.1,84.1,38,19.8,81.8,29.8,131.4,29.8s92.8-10.5,130.3-31.6c37.5-21.1,66.5-50.9,86.9-89.5,19-35.9,28.5-77.4,29.8-123.7,0,0,.3-2.2-2.1-2.2h-128.3c-2.5,0-2.4,2.4-2.4,2.4Z"/>
    <path class="st1" d="M525,489.3h118.6c64.7,0,117.3,52.6,117.3,117.3v4.1c0,1.3-1,2.3-2.3,2.3h-233.6c-1.3,0-2.3-1-2.3-2.3v-119.1c0-1.3,1-2.3,2.3-2.3Z"/>
  </g>
</svg>