<?xml version="1.0" encoding="UTF-8"?>
<svg id="Layer_1" xmlns="http://www.w3.org/2000/svg" version="1.1" xmlns:xlink="http://www.w3.org/1999/xlink" viewBox="0 0 1800 3600">
  <!-- Generator: Adobe Illustrator 30.2.1, SVG Export Plug-In . SVG Version: 2.1.1 Build 1)  -->
  <defs>
    <style>
      .st0 {
        fill: #d9593d;
      }

      .st1, .st2 {
        fill: none;
      }

      .st3 {
        fill: #f2a444;
      }

      .st2 {
        stroke: #262523;
        stroke-miterlimit: 10;
        stroke-width: 5px;
      }

      .st4 {
        fill: #f2e8e2;
      }

      .st5 {
        clip-path: url(#clippath);
      }

      .st6 {
        fill: #262523;
      }
    </style>
    <clipPath id="clippath">
      <path class="st1" d="M1255,1191.9v-169.9c0-1.9-1.4-3.3-3.3-3.3h-169.2c-92.3,0-167.3,75-167.3,167.3v5.8c0,1.9,1.4,3.3,3.3,3.3h148.8c-2,.8-1.9,3.1-1.9,3.1v-.3c-1.6,30-7.4,56.9-19.3,79.6-13.4,25.8-32.4,45.5-57.2,59.2-24.7,13.6-53.6,20.4-86.6,20.4s-62.8-6.3-88.3-18.7c-25.4-12.4-44.9-30.2-58.8-53.5-13.8-23.2-20.7-49.9-20.7-80.2v-286.7c0-34.4,6.8-64.6,20.4-90.9,13.6-26.2,32.8-46.5,57.5-60.8,24.7-14.3,53.3-21.4,85.9-21.4s43.8,3.9,64.5,11.7c20.7,7.8,38.8,19.1,54.2,34.1,14.8,14.4,25.5,31.4,32.4,50.9,0,0-.7,2.3,4.8,2.3h191c3.4,0,2.3-2.9,2.3-2.9-11.7-56.3-33.7-105.8-65.9-148.8-32.8-43.6-73.6-77.5-122.7-101.3-49.1-23.8-102.4-35.8-160.5-35.8s-132.4,15-185.9,45.1c-53.5,30.1-94.9,72.5-124,127.4-29.2,54.8-43.8,118.2-43.8,190.4v286.7c0,68.2,14.8,128.1,44.5,179.7,29.7,51.6,71.5,91.7,125.7,120,54.2,28.2,116.7,42.5,187.4,42.5s132.4-15,185.9-45.1c53.5-30.1,94.9-72.6,124-127.7,27.1-51.2,40.7-110.4,42.5-176.4,0,0,.3-2.5-2.1-3,1.3-.4,2.2-1.6,2.2-3.1Z"/>
    </clipPath>
  </defs>
  <rect class="st6" width="1800" height="3600"/>
  <g>
    <g>
      <path class="st0" d="M1065.3,1198c-1.4,30-7.3,56.9-19.1,79.6-13.4,25.8-32.4,45.5-57.2,59.2-24.7,13.6-53.6,20.4-86.6,20.4s-62.8-6.3-88.3-18.7c-25.4-12.4-44.9-30.2-58.8-53.5s-20.7-49.9-20.7-80.2v-286.7c0-34.4,6.8-64.6,20.4-90.9,13.6-26.2,32.8-46.5,57.5-60.8s53.3-21.4,85.9-21.4,43.8,3.9,64.5,11.7c20.7,7.8,38.8,19.1,54.2,34.1,14.8,14.4,25.5,31.4,32.4,50.9,0,0-.7,2.3,4.8,2.3h191c3.4,0,2.3-2.9,2.3-2.9-11.7-56.3-33.7-105.8-65.9-148.8-32.8-43.6-73.6-77.5-122.7-101.3-49.1-23.8-102.4-35.8-160.5-35.8s-132.4,15-185.9,45.1c-53.5,30.1-94.9,72.5-124,127.4-29.2,54.8-43.8,118.2-43.8,190.4v286.7c0,68.2,14.8,128.1,44.5,179.7,29.7,51.6,71.5,91.7,125.7,120,54.2,28.2,116.7,42.5,187.4,42.5s132.4-15,185.9-45.1c53.5-30.1,94.9-72.6,124-127.7,27.1-51.2,40.7-110.4,42.5-176.4,0,0,.4-3.1-3-3.1h-183c-3.6,0-3.4,3.4-3.4,3.4v-.3Z"/>
      <path class="st3" d="M1251.7,1018.7c1.9,0,3.3,1.4,3.3,3.3v169.9c0,1.9-1.4,3.3-3.3,3.3h-333.2c-1.9,0-3.3-1.4-3.3-3.3v-5.8c0-92.3,75-167.3,167.3-167.3h169.2s0,0,0,0Z"/>
    </g>
    <g class="st5">
      <g>
        <path class="st2" d="M33.8-54c60.2-108.7,126.5-186.5,257.4-195.9,70.6-5.7,145.5,3.8,215.4-13,90.7-19.6,158.7-79.9,197.5-163.5,31.3-63.8,48.7-137.7,78.5-201.2,35-76.9,94.8-134.9,182.4-133.9,89,.2,180.2,43.2,267.9,11.6,74.8-26.2,128.1-88.9,182.4-145.5,25.3-26.9,51.2-53.3,78.7-77.8,43.6-39,91.1-72.9,138.8-106.6"/>
        <path class="st2" d="M37.3,1.4c59.9-109.5,126.2-187.4,256.8-198.5,36.9-3.1,75-2.5,113.2-3.4,34.7-.8,69.3-3.3,102.9-11.1,46.3-10.7,86.9-30.8,120.7-59.8,32.5-27.9,58.2-63.7,77.7-104.6,30.7-64.5,49-138.2,78.4-202.3,9.4-20.5,20.4-39.8,33.2-57,35.5-47.3,84.8-78.4,149-78.7,53-.2,106.9,14.1,160.3,19.2,36.4,3.5,72.5,2.5,108.1-10.3s29.8-12.4,43.6-20.4c53.6-31.5,96.7-80.1,139.8-125.6,25.5-26.9,51.2-53.7,78.4-78.5,43.3-39.4,89.9-74,136.9-108.2"/>
        <path class="st2" d="M40.8,56.8c59.7-110.3,125.7-188.9,256.3-201.1,36.9-3.5,75.1-3.2,113.4-4.3,34.8-1,69.5-3.7,103.2-11.6,46.4-10.9,87.3-31.1,121.2-60.2,32.7-28.1,58.5-64,78-105.2,30.7-64.8,49-138.9,78.3-203.4,9.4-20.6,20.3-40.1,33.2-57.4,35.4-47.7,84.7-79.1,148.9-80.1s107,12.7,160.6,17.3c36.4,3.1,72.7,1.8,108.4-11.1,15.4-5.6,29.9-12.5,43.7-20.6,53.8-31.6,97.4-80.3,140.5-126.1s51.2-54.1,78.1-79.2c42.9-39.9,88.8-75.1,134.9-109.9"/>
        <path class="st2" d="M44.3,112.1C103.8,1.1,169.6-78.2,300-91.6s75.2-3.8,113.7-5.3c35-1.2,69.8-4.1,103.6-12.1,46.6-11,87.6-31.3,121.7-60.6,33-28.3,58.8-64.4,78.3-105.7,30.8-65.1,48.9-139.6,78.2-204.5,9.4-20.8,20.3-40.3,33.2-57.7,35.4-48,84.7-79.9,148.8-81.6,53.1-1.4,107.1,11.4,160.9,15.5,36.5,2.8,72.8,1.2,108.7-11.9s30-12.6,43.9-20.7c54.1-31.8,98.1-80.4,141.3-126.6s51.1-54.5,77.8-79.8c42.5-40.4,87.7-76.2,133-111.5"/>
        <path class="st2" d="M47.7,167.5C107,55.6,172.6-24.4,303-38.9c36.9-4.1,75.3-4.5,113.9-6.2,35.1-1.5,70-4.5,104-12.7,46.7-11.2,88-31.5,122.3-61,33.2-28.4,59.1-64.7,78.6-106.2,30.9-65.5,48.9-140.3,78.1-205.6,9.4-20.9,20.2-40.5,33.1-58.1,35.3-48.4,84.7-80.6,148.7-83,53.1-2,107.3,10,161.1,13.6,36.6,2.4,73,.5,109-12.7s30.1-12.7,44.1-20.9c54.4-31.9,98.7-80.5,142.1-127,25.6-27.5,51-54.9,77.5-80.5,42.1-40.8,86.6-77.3,131.1-113.2"/>
        <path class="st2" d="M51.2,222.9C110.3,110.2,175.7,29.5,305.9,13.8c36.9-4.5,75.4-5.2,114.2-7.2,35.2-1.7,70.2-4.9,104.4-13.2,46.9-11.3,88.3-31.8,122.8-61.4,33.4-28.6,59.4-65.1,79-106.7,30.9-65.8,48.8-141,78-206.7,9.3-21,20.2-40.8,33.1-58.5,35.3-48.7,84.6-81.3,148.6-84.5,53.1-2.6,107.4,8.7,161.4,11.7,36.7,2,73.2-.1,109.3-13.5s30.2-12.8,44.3-21c54.7-32.1,99.4-80.7,142.8-127.5,25.7-27.7,51-55.3,77.2-81.2,41.7-41.3,85.4-78.4,129.2-114.8"/>
        <path class="st2" d="M54.7,278.2c58.9-113.5,124-194.9,254.1-211.7,36.9-4.8,75.4-5.9,114.5-8.1,35.3-1.9,70.5-5.3,104.7-13.7,47-11.5,88.7-32,123.3-61.8,33.6-28.8,59.7-65.4,79.3-107.3,31-66.1,48.8-141.7,78-207.8,9.3-21.1,20.2-41,33-58.8,35.2-49.1,84.6-82.1,148.5-85.9,53.1-3.2,107.5,7.3,161.6,9.8,36.8,1.7,73.4-.8,109.6-14.3,15.6-5.8,30.4-12.9,44.4-21.2,55-32.3,100.1-80.8,143.6-127.9,25.7-27.9,50.9-55.7,76.8-81.9,41.4-41.8,84.3-79.4,127.3-116.5"/>
        <path class="st2" d="M58.2,333.6c58.7-114.3,123.6-196.4,253.6-214.3,37-5.1,75.5-6.6,114.7-9.1,35.4-2.2,70.7-5.7,105.1-14.2s89-32.2,123.9-62.2c33.8-29,60-65.8,79.6-107.8,31.1-66.4,48.7-142.4,77.9-208.9,9.3-21.2,20.1-41.2,33-59.2,35.2-49.5,84.5-82.8,148.3-87.4,53.2-3.8,107.6,6,161.9,7.9,36.9,1.3,73.6-1.5,109.9-15.1,15.6-5.9,30.5-13,44.6-21.3,55.3-32.4,100.7-81,144.3-128.4,25.8-28.1,50.8-56.1,76.5-82.6,41-42.3,83.2-80.5,125.3-118.1"/>
        <path class="st2" d="M61.7,389c58.4-115.1,123.2-197.9,253.1-217s75.6-7.2,115-10c35.5-2.4,71-6.1,105.5-14.8,47.3-11.8,89.4-32.5,124.4-62.5,34.1-29.1,60.2-66.2,79.9-108.3,31.1-66.8,48.7-143.1,77.8-210,9.3-21.3,20.1-41.5,32.9-59.6,35.1-49.8,84.5-83.5,148.2-88.8,53.2-4.4,107.8,4.7,162.1,6,37,.9,73.8-2.1,110.2-15.9s30.6-13.2,44.8-21.5c55.6-32.6,101.4-81.1,145.1-128.9,25.8-28.2,50.8-56.6,76.2-83.3,40.6-42.8,82-81.6,123.4-119.7"/>
        <path class="st2" d="M65.2,444.3c58.2-115.9,122.8-199.4,252.5-219.6,37-5.8,75.7-7.9,115.3-11,35.6-2.6,71.2-6.5,105.9-15.3,47.5-12,89.7-32.7,124.9-62.9,34.3-29.3,60.5-66.5,80.2-108.8,31.2-67.1,48.6-143.7,77.7-211.1,9.3-21.4,20.1-41.7,32.9-59.9,35.1-50.2,84.5-84.3,148.1-90.3,53.2-5,107.9,3.3,162.4,4.2,37,.5,74-2.8,110.5-16.7s30.7-13.3,45-21.6c55.9-32.8,102.1-81.2,145.9-129.3,25.9-28.4,50.7-57,75.9-84,40.2-43.2,80.9-82.7,121.5-121.4"/>
        <path class="st2" d="M68.7,499.7c58-116.6,122.3-200.9,252-222.3,37-6.1,75.7-8.7,115.5-11.9,35.7-2.9,71.5-6.9,106.2-15.8,47.6-12.1,90-33,125.4-63.3,34.5-29.5,60.8-66.9,80.5-109.4,31.3-67.4,48.6-144.4,77.6-212.2,9.2-21.5,20-41.9,32.9-60.3,35-50.5,84.4-85,148-91.7,53.2-5.6,108,2,162.7,2.3,37.1.2,74.2-3.4,110.8-17.5s30.8-13.4,45.2-21.8c56.2-32.9,102.7-81.4,146.6-129.8,25.9-28.6,50.7-57.4,75.6-84.7,39.8-43.7,79.8-83.8,119.6-123"/>
        <path class="st2" d="M72.2,555.1c57.8-117.4,121.9-202.4,251.4-224.9,37-6.4,75.8-9.4,115.8-12.9s71.7-7.3,106.6-16.3c47.8-12.3,90.4-33.2,126-63.7,34.7-29.7,61.1-67.2,80.8-109.9,31.3-67.7,48.5-145.1,77.5-213.3,9.2-21.7,20-42.2,32.8-60.7,35-50.9,84.4-85.8,147.9-93.2s108.1.6,162.9.4c37.2-.2,74.4-4.1,111.1-18.3s30.9-13.5,45.3-21.9c56.5-33.1,103.4-81.5,147.4-130.2,26-28.8,50.6-57.8,75.3-85.4,39.5-44.2,78.6-84.9,117.7-124.7"/>
        <path class="st2" d="M75.6,610.4c57.6-118.2,121.5-203.9,250.9-227.5,37-6.7,75.9-10,116-13.8,35.9-3.4,71.9-7.7,107-16.8,47.9-12.5,90.7-33.4,126.5-64.1,34.9-29.8,61.4-67.6,81.2-110.4,31.4-68.1,48.5-145.8,77.4-214.4,9.2-21.8,20-42.4,32.8-61,34.9-51.2,84.4-86.5,147.8-94.6s108.3-.7,163.2-1.5c37.3-.6,74.5-4.7,111.4-19.1s31-13.6,45.5-22.1c56.8-33.2,104.1-81.7,148.1-130.7,26-29,50.5-58.2,74.9-86.1,39.1-44.7,77.5-86,115.8-126.3"/>
        <path class="st2" d="M79.1,665.8c57.4-119,121.1-205.5,250.4-230.2,37-7.1,76-10.7,116.3-14.8,36.1-3.6,72.2-8.1,107.4-17.4,48.1-12.6,91.1-33.7,127-64.5,35.2-30,61.7-67.9,81.5-110.9,31.5-68.4,48.4-146.5,77.4-215.5,9.2-21.9,19.9-42.6,32.7-61.4,34.9-51.6,84.3-87.3,147.7-96.1,53.3-7.4,108.4-2.1,163.4-3.4,37.4-.9,74.7-5.4,111.7-19.9,15.9-6.3,31.1-13.7,45.7-22.2,57-33.4,104.7-81.8,148.9-131.2,26.1-29.2,50.5-58.6,74.6-86.8,38.7-45.1,76.4-87,113.8-128"/>
        <path class="st2" d="M82.6,721.2c57.2-119.8,120.7-207,249.8-232.8,37-7.4,76.1-11.4,116.6-15.7,36.2-3.9,72.4-8.5,107.7-17.9,48.2-12.8,91.4-33.9,127.6-64.9,35.4-30.2,62-68.3,81.8-111.5,31.5-68.7,48.4-147.2,77.3-216.6,9.2-22,19.9-42.8,32.7-61.7,34.9-51.9,84.3-88,147.6-97.5,53.3-8,108.5-3.4,163.7-5.2,37.5-1.3,74.9-6.1,112-20.7,16-6.3,31.2-13.8,45.9-22.4,57.3-33.6,105.4-81.9,149.6-131.6,26.1-29.4,50.4-59,74.3-87.5,38.3-45.6,75.3-88.1,111.9-129.6"/>
        <path class="st2" d="M86.1,776.5c56.9-120.6,120.2-208.5,249.3-235.5,37-7.7,76.1-12.1,116.8-16.7,36.3-4.1,72.7-8.9,108.1-18.4,48.4-12.9,91.8-34.2,128.1-65.3,35.6-30.4,62.3-68.6,82.1-112,31.6-69.1,48.3-147.9,77.2-217.7,9.1-22.1,19.9-43,32.6-62.1,34.9-52.2,84.3-88.7,147.5-99,53.4-8.7,108.6-4.7,163.9-7.1,37.6-1.7,75.1-6.7,112.3-21.5,16-6.4,31.4-14,46.1-22.5,57.6-33.7,106.1-82.1,150.4-132.1,26.2-29.5,50.3-59.5,74-88.2,37.9-46.1,74.1-89.2,110-131.3"/>
        <path class="st2" d="M89.6,831.9c56.7-121.4,119.8-210,248.7-238.1,37-8.1,76.2-12.8,117.1-17.6s72.9-9.3,108.5-18.9c48.5-13.1,92.1-34.4,128.6-65.7,35.8-30.5,62.6-69,82.4-112.5,31.7-69.4,48.3-148.6,77.1-218.8,9.1-22.2,19.9-43.3,32.6-62.5,34.9-52.6,84.2-89.5,147.4-100.4,53.4-9.3,108.8-6.1,164.2-9,37.6-2,75.3-7.4,112.6-22.3,16.1-6.5,31.5-14.1,46.2-22.7,57.9-33.9,106.7-82.2,151.2-132.5s50.3-59.9,73.7-88.9c37.5-46.6,73-90.3,108.1-132.9"/>
        <path class="st2" d="M93.1,887.3c56.5-122.2,119.4-211.5,248.2-240.7,37-8.4,76.3-13.4,117.4-18.6s73.2-9.7,108.9-19.5c48.7-13.3,92.5-34.6,129.2-66.1,36-30.7,62.8-69.3,82.7-113,31.7-69.7,48.2-149.3,77-219.9,9.1-22.3,19.8-43.5,32.6-62.8,34.8-52.9,84.2-90.2,147.3-101.9,53.4-9.9,108.9-7.4,164.5-10.9,37.7-2.4,75.5-8,112.9-23.1,16.1-6.5,31.6-14.2,46.4-22.8,58.2-34.1,107.4-82.4,151.9-133,26.3-29.9,50.2-60.3,73.4-89.6,37.2-47.1,71.9-91.4,106.2-134.6"/>
        <path class="st2" d="M96.6,942.6c56.3-123,119-213.1,247.7-243.4,37-8.7,76.4-14.1,117.6-19.5,36.6-4.8,73.4-10.1,109.2-20,48.8-13.4,92.8-34.9,129.7-66.5,36.3-30.9,63.1-69.7,83-113.6,31.8-70,48.2-150,76.9-221,9.1-22.4,19.8-43.7,32.5-63.2,34.8-53.3,84.2-91,147.2-103.4,53.4-10.5,109-8.8,164.7-12.8,37.8-2.8,75.7-8.7,113.1-23.9,16.2-6.6,31.7-14.3,46.6-23,58.5-34.2,108.1-82.5,152.7-133.5,26.4-30.1,50.2-60.7,73-90.3,36.8-47.5,70.7-92.5,104.3-136.2"/>
        <path class="st2" d="M100,998c56.1-123.8,118.5-214.6,247.1-246,37-9.1,76.4-14.8,117.9-20.5s73.6-10.5,109.6-20.5,93.2-35.1,130.2-66.9c36.5-31.1,63.4-70.1,83.4-114.1,31.9-70.4,48.1-150.7,76.8-222.1,9.1-22.5,19.8-44,32.5-63.6,34.7-53.6,84.1-91.7,147.1-104.8,53.5-11.1,109.1-10.1,165-14.6,37.9-3.1,75.9-9.3,113.4-24.8s31.8-14.4,46.8-23.1c58.8-34.4,108.7-82.6,153.4-133.9,26.4-30.3,50.1-61.1,72.7-91,36.4-48,69.6-93.6,102.3-137.9"/>
        <path class="st2" d="M103.5,1053.4c55.9-124.6,118.1-216.1,246.6-248.7,37.1-9.4,76.5-15.5,118.2-21.5,36.8-5.3,73.9-10.9,110-21,49.1-13.7,93.5-35.4,130.7-67.2,36.7-31.2,63.7-70.4,83.7-114.6,31.9-70.7,48.1-151.4,76.8-223.2,9.1-22.7,19.7-44.2,32.4-63.9,34.7-54,84.1-92.5,147-106.3,53.5-11.7,109.3-11.5,165.2-16.5,38-3.5,76.1-10,113.7-25.6,16.3-6.7,31.9-14.5,47-23.3,59.1-34.6,109.4-82.8,154.2-134.4s50-61.5,72.4-91.7c36-48.5,68.5-94.6,100.4-139.5"/>
        <path class="st2" d="M107,1108.7c55.7-125.4,117.7-217.6,246-251.3,37.1-9.7,76.6-16.2,118.4-22.4,36.9-5.5,74.1-11.3,110.4-21.6s93.9-35.6,131.3-67.6c36.9-31.4,64-70.8,84-115.1,32-71,48-152.1,76.7-224.3,9-22.8,19.7-44.4,32.4-64.3,34.7-54.3,84.1-93.2,146.9-107.7,53.5-12.3,109.4-12.8,165.5-18.4,38.1-3.9,76.2-10.6,114-26.4,16.3-6.8,32-14.6,47.1-23.4,59.4-34.7,110.1-82.9,155-134.8,26.5-30.7,50-62,72.1-92.4,35.6-49,67.4-95.7,98.5-141.2"/>
        <path class="st2" d="M110.5,1164.1c55.4-126.2,117.3-219.2,245.5-253.9,37.1-10.1,76.7-16.8,118.7-23.4,37-5.7,74.4-11.7,110.7-22.1,49.4-14.1,94.2-35.8,131.8-68,37.2-31.6,64.3-71.1,84.3-115.7,32.1-71.3,48-152.8,76.6-225.4,9-22.9,19.7-44.6,32.3-64.7,34.6-54.7,84-94,146.8-109.2s109.5-14.2,165.7-20.3c38.2-4.2,76.4-11.3,114.3-27.2s32.1-14.8,47.3-23.6c59.7-34.9,110.7-83.1,155.7-135.3,26.6-30.8,49.9-62.4,71.8-93.1,35.2-49.5,66.2-96.8,96.6-142.8"/>
        <path class="st2" d="M114,1219.5c55.2-127,116.8-220.7,245-256.6,37.1-10.4,76.8-17.5,118.9-24.3,37.1-6,74.6-12.1,111.1-22.6,49.5-14.2,94.6-36.1,132.3-68.4,37.4-31.8,64.6-71.5,84.6-116.2,32.1-71.7,47.9-153.5,76.5-226.5s19.6-44.9,32.3-65c34.6-55.1,84-94.7,146.7-110.6s109.6-15.5,166-22.2c38.3-4.6,76.6-12,114.6-28,16.4-6.9,32.3-14.9,47.5-23.7,59.9-35,111.4-83.2,156.5-135.8,26.6-31,49.8-62.8,71.5-93.8,34.9-50,65.1-97.9,94.7-144.5"/>
        <path class="st2" d="M117.5,1274.8c55-127.8,116.4-222.2,244.4-259.2,37.1-10.7,76.8-18.2,119.2-25.3s74.9-12.5,111.5-23.1c49.7-14.4,94.9-36.3,132.9-68.8,37.6-31.9,64.9-71.8,84.9-116.7,32.2-72,47.9-154.1,76.4-227.6,9-23.1,19.6-45.1,32.3-65.4,34.6-55.4,84-95.5,146.5-112.1,53.6-14.2,109.8-16.8,166.3-24,38.3-5,76.8-12.6,114.9-28.8s32.4-15,47.7-23.9c60.2-35.2,112-83.4,157.2-136.2,26.6-31.3,49.8-63.2,71.1-94.5,34.5-50.4,64-99,92.7-146.1"/>
        <path class="st2" d="M121,1330.2c54.8-128.6,116-223.7,243.9-261.9,37.1-11.1,76.9-18.9,119.5-26.2,37.4-6.4,75.1-12.9,111.9-23.7,49.8-14.5,95.3-36.6,133.4-69.2,37.8-32.1,65.2-72.2,85.3-117.2,32.3-72.3,47.8-154.8,76.3-228.7,9-23.2,19.6-45.3,32.2-65.8,34.5-55.8,83.9-96.3,146.4-113.5,53.6-14.8,109.9-18.2,166.5-25.9,38.4-5.3,77-13.3,115.2-29.6,16.5-7,32.5-15.1,47.9-24,60.5-35.4,112.6-83.6,158-136.7,26.7-31.5,49.7-63.6,70.8-95.2,34.1-50.9,62.8-100.1,90.8-147.8"/>
        <path class="st2" d="M124.4,1385.6c54.6-129.4,115.6-225.3,243.3-264.5,37.1-11.4,77-19.6,119.7-27.2,37.5-6.7,75.3-13.3,112.2-24.2,50-14.7,95.5-36.9,133.9-69.6,38-32.4,65.5-72.5,85.6-117.8,32.3-72.7,47.8-155.5,76.2-229.8,8.9-23.3,19.5-45.6,32.2-66.1,34.5-56.1,83.9-97,146.3-115,53.7-15.4,110-19.5,166.8-27.8,38.5-5.7,77.2-13.9,115.5-30.4,16.6-7.1,32.6-15.2,48-24.2,60.8-35.5,113.3-83.7,158.7-137.1,26.7-31.6,49.6-64,70.5-95.9,33.7-51.4,61.7-101.2,88.9-149.4"/>
        <path class="st2" d="M127.9,1440.9c54.4-130.2,115.2-226.8,242.8-267.1,37.1-11.7,77.1-20.2,120-28.1,37.6-6.9,75.6-13.7,112.6-24.7,50.1-14.9,95.9-37.1,134.5-70,38.2-32.5,65.7-72.9,85.9-118.3,32.4-73,47.7-156.2,76.1-230.9s19.5-45.8,32.1-66.5c34.4-56.5,83.9-97.8,146.2-116.4s110.1-20.9,167-29.7c38.6-6.1,77.4-14.6,115.8-31.2,16.6-7.2,32.7-15.3,48.2-24.4,61.1-35.7,114-83.8,159.5-137.6,26.8-31.8,49.6-64.5,70.2-96.6,33.3-51.9,60.6-102.2,87-151"/>
        <path class="st2" d="M131.4,1496.3c54.1-131,114.7-228.3,242.3-269.8,37.1-12.1,77.1-20.9,120.3-29.1,37.7-7.1,75.8-14.1,113-25.2,50.3-15,96.2-37.4,135-70.4,38.4-32.7,66-73.3,86.2-118.8,32.5-73.3,47.7-156.9,76.1-232s19.5-46,32.1-66.8c34.4-56.8,83.8-98.5,146.1-117.9,53.7-16.7,110.3-22.2,167.3-31.6,38.7-6.5,77.6-15.2,116.1-32,16.7-7.2,32.8-15.4,48.4-24.5,61.4-35.9,114.7-84,160.3-138.1,26.8-32,49.5-64.9,69.9-97.2,32.9-52.4,59.5-103.3,85.1-152.7"/>
        <path class="st2" d="M134.9,1551.7c53.9-131.8,114.3-229.9,241.7-272.4,37.1-12.4,77.2-21.6,120.5-30,37.8-7.4,76.1-14.5,113.4-25.8,50.4-15.2,96.6-37.6,135.5-70.8s66.3-73.6,86.5-119.3c32.5-73.6,47.6-157.6,76-233.1,8.9-23.7,19.5-46.3,32-67.2,34.4-57.2,83.8-99.3,146-119.3,53.7-17.3,110.4-23.6,167.5-33.5,38.8-6.8,77.8-15.9,116.4-32.8,16.7-7.3,32.9-15.5,48.6-24.7,61.7-36,115.3-84.1,161-138.5,26.9-32.2,49.4-65.3,69.6-97.9,32.5-52.8,58.3-104.4,83.2-154.3"/>
        <path class="st2" d="M138.4,1607c53.7-132.5,113.9-231.4,241.2-275.1,37.1-12.7,77.3-22.3,120.8-31,37.9-7.6,76.3-14.9,113.7-26.3s96.9-37.8,136-71.2c38.8-33.1,66.6-74,86.8-119.9,32.6-74,47.6-158.3,75.9-234.2,8.9-23.8,19.4-46.5,32-67.6,34.3-57.5,83.8-100.1,145.9-120.8,53.8-17.9,110.5-24.9,167.8-35.3,38.9-7.2,78-16.5,116.7-33.6,16.8-7.3,33-15.7,48.8-24.8,62-36.2,116-84.2,161.8-139,26.9-32.4,49.4-65.7,69.2-98.6,32.2-53.3,57.2-105.5,81.2-156"/>
        <path class="st2" d="M141.9,1662.4c53.5-133.3,113.5-232.9,240.7-277.7,37.1-13.1,77.4-22.9,121-31.9,38-7.8,76.6-15.3,114.1-26.8,50.7-15.5,97.3-38.1,136.6-71.6,39.1-33.3,66.9-74.3,87.1-120.4,32.7-74.3,47.4-159,75.8-235.3,8.8-23.9,19.4-46.7,32-67.9,34.3-57.9,83.7-100.8,145.8-122.2,53.8-18.5,110.6-26.2,168.1-37.2,38.9-7.6,78.2-17.1,117-34.4,16.9-7.4,33.1-15.8,48.9-25,62.3-36.3,116.7-84.4,162.5-139.4,27-32.6,49.3-66.1,68.9-99.3,31.8-53.8,56.1-106.6,79.3-157.6"/>
        <path class="st2" d="M145.4,1717.8c53.3-134.1,113-234.5,240.1-280.3,37.1-13.4,77.5-23.6,121.3-32.9s76.8-15.7,114.5-27.3,97.6-38.3,137.1-71.9c39.3-33.4,67.2-74.7,87.5-120.9,32.7-74.6,47.3-159.7,75.7-236.4,8.8-24,19.4-46.9,31.9-68.3,34.2-58.2,83.7-101.6,145.7-123.7,53.8-19.2,110.8-27.6,168.3-39.1,39-7.9,78.4-17.8,117.3-35.2,16.9-7.5,33.3-15.9,49.1-25.1,62.6-36.5,117.3-84.5,163.3-139.9,27-32.7,49.3-66.6,68.6-100,31.4-54.3,54.9-107.7,77.4-159.3"/>
        <path class="st2" d="M148.9,1773.1c53.1-134.9,112.6-236,239.6-283,37.2-13.7,77.5-24.3,121.6-33.8,38.3-8.3,77-16.1,114.9-27.8,51-15.8,97.9-38.6,137.6-72.3,39.5-33.6,67.5-75,87.8-121.4,32.8-75,47.3-160.4,75.6-237.5,8.8-24.1,19.3-47.2,31.9-68.7,34.2-58.6,83.7-102.4,145.6-125.1,53.8-19.8,110.9-28.9,168.6-41,39.1-8.3,78.5-18.5,117.6-36,17-7.5,33.4-16,49.3-25.3,62.9-36.7,118-84.7,164.1-140.4,27.1-32.9,49.2-67,68.3-100.7,31-54.8,53.8-108.8,75.5-160.9"/>
        <path class="st2" d="M152.3,1828.5c52.9-135.7,112.2-237.6,239-285.6s77.6-25,121.8-34.8c38.4-8.5,77.3-16.5,115.2-28.4,51.2-16,98.3-38.8,138.2-72.7,39.7-33.8,67.8-75.4,88.1-122,32.8-75.3,47.2-161.1,75.5-238.6,8.8-24.2,19.3-47.4,31.8-69,34.2-58.9,83.6-103.1,145.5-126.6,53.9-20.4,111-30.3,168.8-42.9,39.2-8.7,78.7-19.1,117.9-36.8,17-7.6,33.5-16.1,49.5-25.4,63.1-36.8,118.7-84.8,164.8-140.8,27.1-33.1,49.1-67.4,68-101.4,30.6-55.3,52.7-109.8,73.6-162.6"/>
        <path class="st2" d="M155.8,1883.9c52.6-136.5,111.7-239.1,238.5-288.3,37.2-14.4,77.7-25.6,122.1-35.7s77.5-16.9,115.6-28.9c51.3-16.1,98.6-39,138.7-73.1,39.9-34,68.1-75.7,88.4-122.5,32.9-75.6,47.2-161.8,75.5-239.7,8.7-24.3,19.3-47.6,31.8-69.4,34.1-59.3,83.6-103.9,145.4-128,53.9-21,111.1-31.6,169.1-44.7,39.3-9,78.9-19.8,118.2-37.6,17.1-7.7,33.6-16.2,49.7-25.6,63.4-37,119.3-84.9,165.6-141.3,27.2-33.3,49.1-67.8,67.7-102.1,30.2-55.7,51.6-110.9,71.6-164.2"/>
        <path class="st2" d="M159.3,1939.2c52.4-137.3,111.3-240.6,238-290.9,37.2-14.7,77.8-26.3,122.4-36.7,38.6-9,77.8-17.3,116-29.4,51.5-16.3,99-39.3,139.2-73.5,40.1-34.1,68.3-76.1,88.7-123,33-75.9,47.2-162.5,75.4-240.8,8.7-24.5,19.2-47.9,31.7-69.8,34.1-59.6,83.6-104.7,145.3-129.5,53.9-21.7,111.3-33,169.3-46.6,39.4-9.4,79.1-20.4,118.5-38.4,17.1-7.7,33.7-16.3,49.8-25.7,63.7-37.2,120-85.1,166.3-141.7,27.2-33.5,49-68.2,67.3-102.8,29.8-56.2,50.4-112,69.7-165.9"/>
        <path class="st2" d="M162.8,1994.6c52.2-138.1,110.9-242.2,237.4-293.5,37.2-15.1,77.9-27,122.6-37.6,38.7-9.2,78-17.7,116.4-29.9,51.6-16.5,99.3-39.5,139.8-73.9s68.6-76.4,89-123.5c33-76.3,47.1-163.2,75.3-241.9,8.7-24.6,19.2-48.1,31.7-70.1,34.1-60,83.5-105.4,145.2-130.9s111.4-34.3,169.6-48.5c39.5-9.8,79.3-21.1,118.7-39.2,17.2-7.8,33.8-16.5,50-25.9,64-37.3,120.7-85.2,167.1-142.2,27.3-33.7,48.9-68.6,67-103.5,29.4-56.7,49.3-113.1,67.8-167.5"/>
        <path class="st2" d="M166.3,2050c52-138.9,110.5-243.7,236.9-296.2,37.2-15.4,77.9-27.7,122.9-38.6,38.8-9.4,78.3-18.1,116.7-30.5,51.8-16.6,99.7-39.8,140.3-74.3,40.6-34.5,68.9-76.8,89.3-124.1,33.1-76.6,47.1-163.9,75.2-243,8.7-24.7,19.2-48.3,31.7-70.5,34-60.3,83.5-106.2,145.1-132.4s111.5-35.6,169.9-50.4c39.5-10.1,79.5-21.8,119-40,17.2-7.9,33.9-16.6,50.2-26,64.3-37.5,121.4-85.3,167.8-142.7,27.3-33.8,48.9-69.1,66.7-104.2,29.1-57.2,48.2-114.2,65.9-169.2"/>
        <path class="st2" d="M169.8,2105.3c51.8-139.7,110-245.3,236.3-298.8,37.2-15.8,78-28.3,123.2-39.5,38.9-9.7,78.5-18.5,117.1-31,51.9-16.8,100-40,140.8-74.7,40.8-34.7,69.2-77.2,89.7-124.6,33.2-76.9,47-164.6,75.1-244.1,8.7-24.8,19.1-48.5,31.6-70.8,34-60.7,83.4-107,145-133.8,54-23.6,111.7-37,170.1-52.3,39.6-10.5,79.7-22.4,119.3-40.8,17.3-7.9,34-16.7,50.4-26.2,64.6-37.6,122-85.5,168.6-143.1,27.4-34,48.8-69.5,66.4-104.9,28.7-57.7,47-115.3,64-170.8"/>
        <path class="st2" d="M173.3,2160.7c51.6-140.5,109.6-246.8,235.8-301.5,37.2-16.1,78.1-29,123.4-40.5,39-9.9,78.7-18.9,117.5-31.5,52.1-16.9,100.4-40.3,141.3-75.1,41-34.9,69.5-77.5,90-125.1,33.2-77.3,47-165.2,75-245.2,8.7-24.9,19.1-48.8,31.6-71.2,33.9-61,83.4-107.7,144.9-135.3,54-24.2,111.8-38.3,170.4-54.1,39.7-10.9,79.9-23.1,119.6-41.6,17.3-8,34.2-16.8,50.6-26.3,64.9-37.8,122.7-85.6,169.4-143.6,27.4-34.2,48.7-69.9,66.1-105.6,28.3-58.2,45.9-116.4,62.1-172.5"/>
        <path class="st2" d="M176.7,2216.1c51.4-141.3,109.2-248.4,235.3-304.1,37.2-16.4,78.2-29.7,123.7-41.5,39.1-10.1,79-19.3,117.9-32,52.2-17.1,100.7-40.5,141.9-75.5,41.2-35,69.8-77.9,90.3-125.6,33.3-77.6,46.9-165.9,74.9-246.3,8.6-25,19.1-49,31.5-71.6,33.9-61.4,83.4-108.5,144.8-136.7,54-24.8,111.9-39.7,170.6-56,39.8-11.2,80-23.7,119.9-42.4,17.4-8.1,34.3-16.9,50.7-26.5,65.2-38,123.4-85.7,170.1-144,27.5-34.4,48.7-70.3,65.8-106.3,27.9-58.7,44.8-117.4,60.1-174.1"/>
        <path class="st2" d="M180.2,2271.4c51.1-142.1,108.7-249.9,234.7-306.7,37.2-16.8,78.2-30.4,123.9-42.4,39.2-10.3,79.2-19.7,118.2-32.6,52.4-17.3,101-40.7,142.4-75.9,41.5-35.2,70.1-78.2,90.6-126.2,33.4-77.9,46.9-166.6,74.8-247.4,8.6-25.1,19-49.2,31.5-71.9,33.9-61.8,83.3-109.3,144.6-138.2,54-25.5,112-41,170.9-57.9,39.9-11.6,80.2-24.4,120.2-43.2,17.4-8.1,34.4-17,50.9-26.6,65.5-38.1,124-85.9,170.9-144.5,27.6-34.6,48.6-70.7,65.4-107,27.5-59.1,43.7-118.5,58.2-175.8"/>
        <path class="st2" d="M183.7,2326.8c50.9-142.9,108.3-251.5,234.2-309.4,37.2-17.1,78.3-31,124.2-43.4,39.4-10.6,79.5-20.1,118.6-33.1,52.5-17.4,101.4-41,142.9-76.3s70.4-78.6,90.9-126.7c33.4-78.2,46.9-167.3,74.8-248.5,8.6-25.2,19-49.5,31.4-72.3,33.8-62.1,83.3-110.1,144.5-139.6s112.2-42.4,171.1-59.8c40-12,80.4-25.1,120.5-44,17.5-8.2,34.5-17.1,51.1-26.8,65.8-38.3,124.7-86,171.6-145,27.6-34.8,48.5-71.2,65.1-107.7,27.1-59.6,42.5-119.6,56.3-177.4"/>
        <path class="st2" d="M187.2,2382.2c50.7-143.7,107.9-253,233.6-312,37.2-17.5,78.4-31.7,124.5-44.3,39.5-10.8,79.7-20.5,119-33.6,52.7-17.6,101.7-41.2,143.5-76.7,41.9-35.6,70.7-78.9,91.2-127.2,33.5-78.6,46.8-168,74.7-249.6,8.6-25.3,19-49.7,31.4-72.7,33.8-62.5,83.2-110.8,144.4-141.1,54.1-26.7,112.3-43.6,171.4-61.7s80.6-25.7,120.8-44.8c17.5-8.3,34.6-17.3,51.3-26.9,66-38.5,125.4-86.2,172.4-145.4,27.7-34.9,48.4-71.6,64.8-108.4,26.7-60.1,41.4-120.7,54.4-179.1"/>
        <path class="st2" d="M190.7,2437.5c50.5-144.5,107.4-254.6,233.1-314.7s78.5-32.3,124.7-45.3c39.6-10.9,80-20.9,119.3-34.1,52.8-17.7,102.1-41.5,144-77,42.1-35.7,70.9-79.3,91.5-127.7,33.6-78.9,46.8-168.7,74.6-250.7,8.6-25.5,18.9-49.9,31.4-73,33.8-62.8,83.2-111.6,144.3-142.5,54.1-27.4,112.4-44.9,171.7-63.5s80.8-26.4,121.1-45.6c17.6-8.3,34.7-17.4,51.5-27.1,66.3-38.6,126.1-86.3,173.2-145.9,27.7-35.1,48.4-72,64.5-109.1,26.3-60.6,40.3-121.8,52.5-180.7"/>
        <path class="st2" d="M194.2,2492.9c50.3-145.3,107-256.1,232.6-317.3,37.2-18.1,78.6-33,125-46.2,39.7-11.2,80.2-21.3,119.7-34.7s102.4-41.7,144.5-77.4,71.2-79.6,91.9-128.3c33.6-79.2,46.7-169.4,74.5-251.8,8.6-25.6,18.9-50.1,31.3-73.4,33.7-63.2,83.2-112.4,144.2-144,54.1-28,112.6-46.3,171.9-65.4,40.3-13,81-27,121.4-46.4,17.6-8.4,34.8-17.5,51.6-27.2,66.6-38.8,126.7-86.4,173.9-146.3,27.8-35.3,48.3-72.4,64.2-109.8,25.9-61.1,39.1-122.9,50.6-182.3"/>
        <path class="st2" d="M197.7,2548.3c50.1-146.1,106.6-257.7,232-319.9,37.2-18.5,78.7-33.7,125.3-47.2,39.8-11.4,80.5-21.7,120.1-35.2,53.1-18.1,102.8-42,145-77.8,42.5-36.1,71.5-80,92.2-128.8,33.7-79.6,46.7-170.1,74.4-252.9,8.5-25.7,18.9-50.4,31.3-73.8,33.7-63.5,83.1-113.2,144.1-145.4s112.7-47.6,172.2-67.3c40.4-13.4,81.2-27.7,121.7-47.2,17.7-8.5,34.9-17.6,51.8-27.4,66.9-38.9,127.4-86.6,174.7-146.8,27.8-35.5,48.2-72.8,63.9-110.5,25.5-61.6,38-123.9,48.6-184"/>
        <path class="st2" d="M201.1,2603.6c49.9-146.9,106.1-259.2,231.5-322.6,37.2-18.8,78.7-34.3,125.5-48.1,39.9-11.6,80.7-22.1,120.5-35.7,53.3-18.2,103.1-42.2,145.6-78.2,42.8-36.3,71.8-80.4,92.5-129.3,33.8-79.9,46.6-170.8,74.3-254,8.5-25.8,18.9-50.6,31.2-74.1,33.6-63.9,83.1-113.9,144-146.9,54.2-29.3,112.8-49,172.4-69.2,40.4-13.7,81.4-28.4,122-48,17.7-8.5,35-17.7,52-27.5,67.2-39.1,128.1-86.7,175.4-147.3,27.9-35.7,48.2-73.3,63.5-111.2,25.2-62.1,36.9-125,46.7-185.6"/>
        <path class="st2" d="M204.6,2659c49.6-147.7,105.7-260.8,230.9-325.2,37.2-19.2,78.8-35,125.8-49.1,40-11.9,80.9-22.5,120.8-36.2,53.4-18.4,103.5-42.4,146.1-78.6,43-36.5,72.1-80.7,92.8-129.8,33.8-80.2,46.6-171.5,74.2-255.1,8.5-25.9,18.8-50.8,31.2-74.5,33.6-64.2,83-114.7,143.9-148.3s113-50.3,172.7-71.1c40.5-14.1,81.6-29,122.3-48.8,17.8-8.6,35.2-17.8,52.2-27.7,67.5-39.3,128.7-86.8,176.2-147.7,27.9-35.9,48.1-73.7,63.2-111.9,24.8-62.5,35.8-126.1,44.8-187.3"/>
        <path class="st2" d="M208.1,2714.4c49.4-148.4,105.3-262.3,230.4-327.8,37.2-19.5,78.9-35.7,126-50,40.2-12.1,81.2-22.9,121.2-36.7,53.6-18.5,103.8-42.7,146.6-79,43.2-36.6,72.4-81.1,93.1-130.4,33.9-80.5,46.6-172.1,74.2-256.2,8.5-26,18.8-51.1,31.2-74.9,33.6-64.6,83-115.5,143.8-149.8s113.1-51.6,172.9-73c40.6-14.5,81.7-29.7,122.6-49.6,17.8-8.7,35.3-17.9,52.4-27.8,67.8-39.4,129.4-87,176.9-148.2,28-36.1,48-74.1,62.9-112.6,24.4-63,34.6-127.2,42.9-188.9"/>
        <path class="st2" d="M211.6,2769.7c49.2-149.2,104.8-263.9,229.9-330.5,37.2-19.8,79-36.4,126.3-51,40.3-12.3,81.4-23.3,121.6-37.3,53.8-18.7,104.2-42.9,147.2-79.4,43.4-36.8,72.7-81.4,93.4-130.9,34-80.9,46.5-172.8,74.1-257.3,8.5-26.1,18.8-51.3,31.1-75.2,33.5-64.9,82.9-116.3,143.7-151.2,54.2-31.2,113.2-53,173.2-74.8,40.7-14.8,81.9-30.3,122.9-50.4,17.9-8.7,35.4-18.1,52.5-28,68.1-39.6,130.1-87.1,177.7-148.6,28-36.2,48-74.5,62.6-113.3,24-63.5,33.5-128.3,41-190.6"/>
        <path class="st2" d="M215.1,2825.1c49-150,104.4-265.4,229.3-333.1,37.3-20.2,79.1-37,126.6-51.9,40.4-12.6,81.7-23.7,122-37.8,53.9-18.8,104.5-43.2,147.7-79.8,43.6-37,73-81.8,93.8-131.4,34-81.2,46.5-173.5,74-258.4,8.5-26.2,18.7-51.5,31.1-75.6,33.5-65.3,82.9-117.1,143.6-152.7s113.3-54.3,173.5-76.7c40.8-15.2,82.1-31,123.2-51.2,17.9-8.8,35.5-18.2,52.7-28.1,68.4-39.8,130.8-87.2,178.5-149.1,28.1-36.4,47.9-74.9,62.3-114,23.6-64,32.4-129.4,39-192.2"/>
        <path class="st2" d="M218.6,2880.5c48.8-150.8,103.9-267,228.8-335.8,37.3-20.5,79.1-37.7,126.8-52.9,40.5-12.8,81.9-24.1,122.3-38.3,54.1-19,104.8-43.4,148.2-80.2,43.9-37.2,73.2-82.1,94.1-131.9,34.1-81.5,46.4-174.2,73.9-259.5,8.4-26.3,18.7-51.8,31-75.9,33.5-65.6,82.8-117.8,143.5-154.1,54.2-32.5,113.5-55.7,173.7-78.6,40.9-15.6,82.3-31.7,123.5-52,18-8.9,35.6-18.3,52.9-28.3,68.7-39.9,131.4-87.4,179.2-149.5,28.1-36.6,47.8-75.4,62-114.6,23.2-64.5,31.2-130.5,37.1-193.9"/>
        <path class="st2" d="M222.1,2935.8c48.6-151.6,103.5-268.6,228.2-338.4,37.3-20.9,79.2-38.4,127.1-53.8,40.6-13,82.2-24.5,122.7-38.8,54.2-19.2,105.2-43.6,148.8-80.6,44.1-37.4,73.5-82.5,94.4-132.5,34.1-81.9,46.4-174.9,73.8-260.6,8.4-26.4,18.7-52,31-76.3,33.4-66,82.8-118.6,143.4-155.6s113.6-57,174-80.5c41-15.9,82.5-32.3,123.8-52.8,18-8.9,35.7-18.4,53.1-28.4,68.9-40.1,132.1-87.5,180-150,28.2-36.8,47.8-75.8,61.6-115.3,22.8-65,30.1-131.5,35.2-195.5"/>
        <path class="st2" d="M225.6,2991.2c48.4-152.4,103.1-270.1,227.7-341,37.3-21.2,79.3-39.1,127.4-54.8,40.7-13.3,82.4-24.9,123.1-39.4,54.4-19.3,105.5-43.9,149.3-81,44.3-37.5,73.8-82.9,94.7-133,34.2-82.2,46.3-175.6,73.7-261.7,8.4-26.6,18.6-52.2,30.9-76.7,33.4-66.3,82.7-119.4,143.3-157,54.3-33.7,113.7-58.3,174.2-82.4,41.1-16.3,82.7-33,124.1-53.6,18.1-9,35.8-18.5,53.3-28.6,69.2-40.2,132.8-87.6,180.7-150.5,28.2-37,47.7-76.2,61.3-116,22.4-65.5,29-132.6,33.3-197.2"/>
        <path class="st2" d="M229,3046.6c48.1-153.2,102.6-271.7,227.2-343.7,37.3-21.5,79.4-39.7,127.6-55.7,40.8-13.5,82.6-25.3,123.5-39.9,54.5-19.5,105.9-44.1,149.8-81.4,44.5-37.7,74.1-83.2,95-133.5,34.3-82.5,46.3-176.3,73.6-262.8,8.4-26.7,18.6-52.4,30.9-77,33.3-66.7,82.7-120.2,143.2-158.5,54.3-34.4,113.9-59.7,174.5-84.2,41.1-16.7,82.9-33.6,124.3-54.5,18.1-9.1,35.9-18.6,53.4-28.7,69.5-40.4,133.4-87.8,181.5-150.9,28.3-37.2,47.6-76.6,61-116.7,22-65.9,27.9-133.7,31.4-198.8"/>
        <path class="st2" d="M232.5,3101.9c47.9-154,102.2-273.2,226.6-346.3s79.5-40.4,127.9-56.7c40.9-13.7,82.9-25.7,123.8-40.4,54.7-19.6,106.2-44.4,150.3-81.7s74.4-83.6,95.3-134c34.3-82.8,46.3-177,73.6-263.9,8.4-26.8,18.6-52.7,30.9-77.4,33.3-67.1,82.6-121,143.1-159.9,54.3-35,114-61,174.7-86.1,41.2-17,83.1-34.3,124.6-55.3,18.2-9.1,36-18.7,53.6-28.9,69.8-40.6,134.1-87.9,182.3-151.4,28.4-37.3,47.5-77,60.7-117.4,21.6-66.4,26.7-134.8,29.5-200.5"/>
        <path class="st2" d="M236,3157.3c47.7-154.8,101.7-274.8,226.1-349,37.3-22.2,79.5-41.1,128.2-57.6,41-13.9,83.1-26.1,124.2-40.9s106.6-44.6,150.9-82.1c44.9-38.1,74.7-83.9,95.6-134.6,34.4-83.2,46.2-177.7,73.5-265,8.4-26.9,18.5-52.9,30.8-77.8,33.3-67.4,82.6-121.7,143-161.4,54.3-35.7,114.1-62.4,175-88,41.3-17.4,83.2-34.9,124.9-56.1,18.2-9.2,36.2-18.9,53.8-29,70.1-40.7,134.8-88.1,183-151.8,28.4-37.5,47.5-77.5,60.4-118.1,21.2-66.9,25.6-135.9,27.5-202.1"/>
        <path class="st2" d="M239.5,3212.7c47.5-155.6,101.3-276.3,225.5-351.6,37.3-22.6,79.6-41.8,128.4-58.6,41.2-14.2,83.4-26.5,124.6-41.5,55-20,106.9-44.9,151.4-82.5,45.2-38.2,75.1-84.2,96-135.1,34.6-83.4,46.2-178.4,73.4-266.1,8.3-27,18.5-53.1,30.8-78.1,33.2-67.8,82.5-122.5,142.8-162.8,54.3-36.3,114.2-63.7,175.3-89.9s83.4-35.6,125.2-56.9c18.3-9.3,36.3-19,54-29.2,70.4-40.9,135.5-88.2,183.8-152.3,28.5-37.7,47.4-77.9,60.1-118.8,20.8-67.4,24.5-137,25.6-203.8"/>
        <path class="st2" d="M243,3268c47.3-156.4,100.8-277.9,225-354.2,37.3-22.9,79.7-42.5,128.7-59.5,41.3-14.4,83.6-26.9,125-42,55.1-20.1,107.3-45.1,151.9-82.9,45.4-38.4,75.4-84.6,96.3-135.6,34.7-83.8,46.1-179,73.3-267.2,8.3-27.1,18.5-53.4,30.7-78.5,33.2-68.1,82.5-123.3,142.7-164.3,54.3-36.9,114.4-65,175.5-91.8,41.5-18.1,83.6-36.3,125.5-57.7,18.3-9.3,36.4-19.1,54.2-29.3,70.8-40.9,136.1-88.3,184.5-152.8,28.5-37.9,47.3-78.3,59.7-119.5,20.4-67.9,23.3-138.1,23.7-205.4"/>
        <path class="st2" d="M246.5,3323.4c47.1-157.2,100.4-279.5,224.5-356.9,37.3-23.3,79.8-43.1,128.9-60.5,41.4-14.6,83.9-27.3,125.3-42.5,55.3-20.3,107.6-45.3,152.5-83.3,45.6-38.6,75.6-84.9,96.6-136.1,34.7-84.1,46.1-179.7,73.2-268.3,8.3-27.2,18.4-53.6,30.7-78.9,33.2-68.5,82.4-124.1,142.6-165.7,54.3-37.6,114.5-66.4,175.8-93.6s83.8-36.9,125.8-58.5c18.4-9.4,36.5-19.2,54.3-29.5,71.1-41.1,136.8-88.5,185.3-153.2,28.6-38.1,47.3-78.7,59.4-120.2,20-68.4,22.2-139.1,21.8-207.1"/>
        <path class="st2" d="M250,3378.8c46.9-158,100-281,223.9-359.5,37.3-23.6,79.9-43.8,129.2-61.5,41.5-14.9,84.1-27.7,125.7-43,55.4-20.4,107.9-45.6,153-83.7,45.8-38.8,75.9-85.3,96.9-136.7,34.8-84.4,46-180.4,73.1-269.4,8.3-27.3,18.4-53.8,30.6-79.2,33.1-68.8,82.4-124.9,142.5-167.2,54.4-38.2,114.6-67.7,176-95.5,41.7-18.9,84-37.6,126.1-59.3,18.4-9.5,36.6-19.3,54.5-29.6,71.4-41.2,137.5-88.6,186-153.7,28.6-38.3,47.2-79.1,59.1-120.9,19.6-68.8,21.1-140.2,19.9-208.7"/>
        <path class="st2" d="M253.4,3434.1c46.6-158.8,99.5-282.6,223.4-362.2,37.3-23.9,79.9-44.5,129.5-62.4,41.6-15.1,84.4-28.1,126.1-43.6,55.6-20.6,108.3-45.8,153.5-84.1,46-39,76.2-85.7,97.2-137.2,34.9-84.8,46-181.1,73-270.5,8.3-27.4,18.4-54,30.6-79.6,33.1-69.2,82.3-125.7,142.4-168.6,54.4-38.9,114.7-69.1,176.3-97.4s84.2-38.2,126.4-60.1c18.5-9.5,36.7-19.4,54.7-29.8,71.6-41.4,138.1-88.7,186.8-154.1,28.7-38.4,47.1-79.5,58.8-121.6,19.2-69.3,20-141.3,17.9-210.4"/>
        <path class="st2" d="M256.9,3489.5c46.4-159.6,99.1-284.2,222.8-364.8,37.3-24.3,80-45.2,129.7-63.4,41.7-15.3,84.6-28.5,126.5-44.1,55.7-20.8,108.6-46.1,154.1-84.5,46.3-39.1,76.5-86,97.5-137.7,34.9-85.1,46-181.8,72.9-271.6,8.3-27.6,18.4-54.3,30.6-79.9,33-69.5,82.3-126.4,142.3-170.1,54.4-39.5,114.9-70.4,176.6-99.3s84.4-38.9,126.7-60.9c18.5-9.6,36.9-19.5,54.9-29.9,71.9-41.6,138.8-88.9,187.6-154.6,28.7-38.6,47-80,58.5-122.3,18.8-69.8,18.8-142.4,16-212"/>
        <path class="st2" d="M260.4,3544.9c46.2-160.4,98.6-285.7,222.3-367.4s80.1-45.8,130-64.3c41.8-15.6,84.8-28.9,126.8-44.6,55.9-20.9,109-46.3,154.6-84.9,46.5-39.3,76.8-86.4,97.8-138.2,35-85.4,45.9-182.5,72.9-272.7,8.2-27.7,18.3-54.5,30.5-80.3,33-69.9,82.2-127.2,142.2-171.5,54.4-40.2,115-71.7,176.8-101.2,41.9-20,84.6-39.6,127-61.7,18.6-9.7,37-19.6,55.1-30.1,72.2-41.7,139.5-89,188.3-155.1,28.8-38.8,47-80.4,58.2-123,18.4-70.3,17.7-143.5,14.1-213.6"/>
        <path class="st2" d="M263.9,3600.2c46-161.2,98.2-287.3,221.8-370.1,37.3-25,80.2-46.5,130.3-65.3,41.9-15.8,85.1-29.3,127.2-45.1,56-21.1,109.3-46.5,155.1-85.3s77.1-86.7,98.2-138.8c35-85.8,45.9-183.2,72.8-273.8,8.2-27.8,18.3-54.7,30.5-80.7,33-70.2,82.2-128,142.1-173,54.4-40.8,115.1-73.1,177.1-103s84.8-40.2,127.3-62.5c18.6-9.7,37.1-19.7,55.2-30.2,72.5-41.9,140.1-89.1,189.1-155.5,28.8-39,46.9-80.8,57.8-123.7,18-70.8,16.6-144.6,12.2-215.3"/>
        <path class="st2" d="M267.4,3655.6c45.8-162,97.7-288.8,221.2-372.7,37.3-25.3,80.2-47.2,130.5-66.2,42-16,85.4-29.6,127.6-45.6,56.2-21.1,109.7-46.8,155.6-85.7,46.9-39.7,77.3-87.1,98.5-139.3,35.1-86.1,45.8-183.9,72.7-274.9,8.2-27.9,18.3-55,30.4-81,32.9-70.6,82.1-128.8,142-174.4,54.4-41.5,115.3-74.4,177.3-104.9,42.1-20.7,84.9-40.9,127.6-63.3,18.7-9.8,37.2-19.8,55.4-30.4,72.8-42,140.8-89.3,189.8-156,28.9-39.2,46.7-81.2,57.5-124.4,17.5-71.3,15.4-145.7,10.3-216.9"/>
        <path class="st2" d="M270.9,3711c45.6-162.8,97.3-290.4,220.7-375.4,37.3-25.7,80.3-47.9,130.8-67.2,42.2-16.3,85.6-30,128-46.2,56.4-21.3,110-47,156.2-86.1,47.1-39.8,77.6-87.5,98.8-139.8,35.1-86.4,45.8-184.6,72.6-276,8.2-28,18.2-55.2,30.4-81.4,32.9-70.9,82.1-129.6,141.9-175.9,54.4-42.1,115.4-75.8,177.6-106.8s85.1-41.5,127.9-64.1c18.7-9.9,37.3-20,55.6-30.5,73.1-42.2,141.5-89.4,190.6-156.4,28.9-39.4,46.7-81.7,57.2-125.1,17.1-71.8,14.3-146.7,8.4-218.6"/>
        <path class="st2" d="M274.4,3766.3c45.3-163.6,96.8-292,220.1-378s80.4-48.6,131-68.1c42.3-16.5,85.9-30.4,128.3-46.7,56.5-21.5,110.4-47.3,156.7-86.4,47.3-40,77.9-87.8,99.1-140.3,35.2-86.8,45.7-185.2,72.5-277.1,8.2-28.1,18.2-55.4,30.3-81.8,32.9-71.3,82-130.4,141.8-177.3,54.4-42.7,115.5-77.1,177.8-108.7,42.3-21.4,85.3-42.2,128.2-64.9,18.8-9.9,37.4-20.1,55.8-30.7,73.4-42.4,142.2-89.6,191.4-156.9,29-39.5,46.6-82.1,56.9-125.8,16.7-72.3,13.2-147.8,6.4-220.2"/>
        <path class="st2" d="M277.9,3821.7c45.1-164.3,96.4-293.5,219.6-380.6,37.3-26.4,80.5-49.2,131.3-69.1,42.4-16.7,86.1-30.8,128.7-47.2,56.7-21.6,110.7-47.5,157.2-86.8,47.6-40.2,78.2-88.2,99.4-140.9,35.3-87.1,45.7-185.9,72.4-278.2,8.2-28.2,18.2-55.7,30.3-82.1,32.8-71.7,81.9-131.2,141.7-178.8,54.4-43.4,115.6-78.5,178.1-110.6,42.4-21.8,85.5-42.9,128.5-65.7,18.8-10,37.5-20.2,56-30.8,73.7-42.5,142.8-89.7,192.1-157.4,29-39.7,46.5-82.5,56.6-126.5,16.3-72.7,12-148.9,4.5-221.9"/>
        <path class="st2" d="M281.3,3877.1c44.9-165.1,95.9-295.1,219.1-383.3,37.3-26.7,80.6-49.8,131.6-70s86.3-31.2,129.1-47.7c56.8-21.8,111-47.8,157.8-87.2,47.8-40.4,78.5-88.5,99.7-141.4,35.3-87.4,45.7-186.6,72.3-279.3,8.1-28.3,18.1-55.9,30.3-82.5,32.8-72,81.9-131.9,141.6-180.2,54.4-44,115.8-79.8,178.4-112.5,42.5-22.2,85.7-43.5,128.8-66.5,18.9-10.1,37.6-20.3,56.1-31,74-42.7,143.5-89.8,192.9-157.8,29.1-39.9,46.5-82.9,56.3-127.2,16-73.2,10.9-150,2.6-223.5"/>
        <path class="st2" d="M284.8,3932.4c44.7-165.9,95.5-296.7,218.5-385.9,37.3-27,80.7-50.5,131.8-71,42.6-17.1,86.6-31.6,129.5-48.3,57-22,111.4-48,158.3-87.6,48-40.6,78.8-88.9,100-141.9,35.4-87.7,45.6-187.3,72.3-280.4,8.1-28.4,18.1-56.1,30.2-82.9,32.8-72.4,81.8-132.7,141.5-181.7,54.4-44.7,115.9-81.1,178.6-114.3,42.6-22.5,85.9-44.2,129.1-67.3,18.9-10.1,37.7-20.4,56.3-31.1,74.3-42.8,144.2-90,193.6-158.3,29.2-40.1,46.4-83.3,55.9-127.9,15.6-73.7,9.8-151.1.7-225.2"/>
        <path class="st2" d="M288.3,3987.8c44.5-166.7,94.8-298.5,218-388.6,37.2-27.5,80.8-51.1,132.1-71.9s86.8-32,129.8-48.8c57.1-22.1,111.7-48.2,158.8-88,48.2-40.7,79-89.2,100.4-142.4,35.4-88.1,45.6-188,72.2-281.5,8.1-28.5,18.1-56.3,30.2-83.2,32.7-72.7,81.8-133.5,141.4-183.1,54.4-45.3,116-82.5,178.9-116.2s86.1-44.8,129.4-68.1c19-10.2,37.9-20.5,56.5-31.3,74.6-43,144.8-90.1,194.4-158.7,29.2-40.3,46.3-83.7,55.6-128.6,15.2-74.2,8.7-152.2-1.2-226.8"/>
        <path class="st2" d="M291.8,4043.2c44.3-167.5,94.4-300,217.4-391.2,37.2-27.8,80.9-51.8,132.4-72.9,42.9-17.5,87.1-32.4,130.2-49.3,57.2-22.3,112.1-48.5,159.3-88.4,48.4-40.9,79.3-89.6,100.7-143,35.5-88.4,45.5-188.7,72.1-282.6,8.1-28.7,18-56.6,30.1-83.6,32.7-73.1,81.7-134.3,141.3-184.6s116.2-83.8,179.1-118.1c42.7-23.3,86.3-45.5,129.7-68.9,19-10.3,38-20.6,56.7-31.4,74.9-43.2,145.5-90.2,195.1-159.2,29.3-40.5,46.3-84.2,55.3-129.3,14.8-74.7,7.5-153.3-3.1-228.5"/>
        <path class="st2" d="M295.3,4098.5c44.1-168.3,94-301.5,216.9-393.8,37.2-28.1,80.9-52.5,132.6-73.8,43-17.8,87.3-32.8,130.6-49.8,57.4-22.4,112.4-48.7,159.9-88.8,48.7-41.1,79.6-90,101-143.5,35.5-88.7,45.5-189.4,72-283.7,8.1-28.8,18-56.8,30.1-84,32.7-73.4,81.6-135.1,141.2-186,54.4-46.6,116.3-85.2,179.4-120,42.8-23.6,86.4-46.2,129.9-69.7,19.1-10.3,38.1-20.8,56.9-31.6,75.2-43.3,146.2-90.4,195.9-159.7,29.3-40.6,46.2-84.6,55-130,14.4-75.2,6.4-154.3-5.1-230.1"/>
        <path class="st2" d="M298.8,4153.9c43.8-169.1,93.5-303.1,216.4-396.5,37.2-28.5,81-53.1,132.9-74.8s87.5-33.2,131-50.4c57.5-22.6,112.8-49,160.4-89.2,48.9-41.3,79.9-90.3,101.3-144,35.6-89.1,45.5-190.1,71.9-284.8,8.1-28.9,18-57,30-84.3,32.6-73.8,81.5-136,141.1-187.5,54.3-47.4,116.4-86.5,179.6-121.9s86.6-46.8,130.2-70.5c19.1-10.4,38.2-20.9,57-31.7,75.4-43.5,146.9-90.5,196.7-160.1,29.4-40.8,46.1-85,54.7-130.7,14-75.6,5.3-155.4-7-231.8"/>
        <path class="st2" d="M302.3,4209.3c43.6-169.9,93.1-304.6,215.8-399.1,37.2-28.8,81.1-53.8,133.2-75.7,43.2-18.2,87.8-33.6,131.3-50.9,57.7-22.8,113.1-49.2,160.9-89.6,49.1-41.4,80.2-90.7,101.6-144.5,35.7-89.4,45.4-190.8,71.8-285.9,8-29,17.9-57.3,30-84.7,32.6-74.1,81.4-136.7,140.9-188.9,54.4-48,116.5-87.8,179.9-123.7,43-24.4,86.8-47.5,130.5-71.3,19.2-10.5,38.3-21,57.2-31.9,75.7-43.6,147.5-90.6,197.4-160.6,29.4-41,46.1-85.4,54.4-131.3,13.6-76.1,4.1-156.5-8.9-233.4"/>
        <path class="st2" d="M305.7,4264.6c43.4-170.7,92.7-306.1,215.3-401.8,37.2-29.1,81.2-54.5,133.4-76.7,43.3-18.4,88-34,131.7-51.4,57.8-22.9,113.5-49.5,161.5-90,49.3-41.6,80.5-91,101.9-145.1,35.7-89.7,45.4-191.5,71.7-287,8-29.1,17.9-57.5,30-85,32.5-74.5,81.4-137.5,140.8-190.4,54.4-48.6,116.7-89.2,180.2-125.6,43.1-24.7,87-48.1,130.8-72.1,19.2-10.5,38.4-21.1,57.4-32,76-43.8,148.2-90.8,198.2-161,29.5-41.2,46-85.8,54-132,13.2-76.6,3-157.6-10.8-235.1"/>
        <path class="st2" d="M309.2,4320c43.2-171.5,92.2-307.7,214.7-404.4,37.2-29.5,81.3-55.1,133.7-77.6,43.4-18.7,88.3-34.4,132.1-51.9,58-23.1,113.8-49.7,162-90.4s80.7-91.4,102.3-145.6c35.8-90.1,45.3-192.1,71.7-288.1,8-29.2,17.9-57.7,29.9-85.4,32.5-74.8,81.4-138.3,140.7-191.8,54.4-49.2,116.8-90.5,180.4-127.5,43.2-25.1,87.2-48.8,131.1-72.9,19.3-10.6,38.5-21.2,57.6-32.2,76.3-44,148.9-90.9,198.9-161.5,29.5-41.4,45.9-86.2,53.7-132.7,12.8-77.1,1.9-158.7-12.7-236.7"/>
        <path class="st2" d="M312.7,4375.4c43-172.3,91.8-309.2,214.2-407,37.2-29.8,81.4-55.8,133.9-78.6,43.6-18.9,88.5-34.8,132.5-52.5,58.1-23.3,114.2-49.9,162.5-90.8,49.7-42,81-91.7,102.6-146.1,35.8-90.4,45.3-192.8,71.6-289.2,8-29.3,17.9-57.9,29.9-85.8,32.5-75.2,81.3-139,140.6-193.3,54.4-49.9,116.9-91.9,180.7-129.4,43.3-25.5,87.4-49.5,131.4-73.7,19.3-10.7,38.6-21.3,57.8-32.3,76.6-44.1,149.5-91.1,199.7-162,29.6-41.6,45.9-86.7,53.4-133.4,12.5-77.6.8-159.8-14.7-238.4"/>
        <path class="st2" d="M316.2,4430.7c55.8-225.8,121.5-391.3,347.9-489.2,101.2-44.7,211-71.8,295.9-144.1,159-132.9,127-348.7,204.2-523.1,60.6-145.6,187.8-247,321.4-326,62.3-37.4,126.7-70.9,189.7-107,76.8-44.5,150.2-91.2,200.5-162.4,78.8-111,62.5-247.3,36.5-374.1"/>
      </g>
    </g>
  </g>
  <g>
    <path class="st4" d="M521.2,2014.1c-7,0-13.3-1.5-18.8-4.5-5.5-3-9.8-7.5-13-13.4-3.2-5.9-4.8-13.1-4.8-21.6v-23c0-12.8,3.5-22.6,10.5-29.3,7-6.8,16.5-10.2,28.4-10.2s20.8,3.2,27.2,9.6c6.3,6.4,9.5,15,9.5,25.7v.7h-15v-1.1c0-4-.8-7.6-2.4-10.9-1.6-3.2-4-5.8-7.1-7.6-3.2-1.9-7.2-2.8-12.2-2.8-7.5,0-13.3,2.3-17.5,6.8-4.2,4.5-6.3,10.8-6.3,18.8v23.5c0,7.9,2.1,14.2,6.3,18.8,4.2,4.6,10.1,6.9,17.6,6.9s12.9-2.1,16.4-6.2c3.5-4.1,5.2-9.4,5.2-16v-1.8h-26.3v-13h41.3v48.4h-14v-9.9h-2.2c-.8,1.8-2.1,3.6-3.7,5.5-1.6,1.9-4,3.4-7,4.6-3,1.2-7.1,1.8-12.1,1.8Z"/>
    <path class="st4" d="M611.8,2014.1c-7,0-13.1-1.5-18.3-4.4-5.2-2.9-9.3-7.1-12.2-12.5-2.9-5.4-4.4-11.6-4.4-18.7v-1.7c0-7.2,1.4-13.5,4.3-18.8,2.9-5.4,6.9-9.5,12.1-12.5,5.2-2.9,11.2-4.4,18-4.4s12.4,1.5,17.4,4.4c5,2.9,8.9,7,11.7,12.2,2.8,5.2,4.2,11.3,4.2,18.3v5.5h-53.1c.2,6.1,2.2,10.9,6.1,14.5,3.9,3.6,8.7,5.4,14.5,5.4s9.5-1.2,12.2-3.6c2.8-2.4,4.9-5.2,6.4-8.4l11.9,6.2c-1.3,2.6-3.2,5.4-5.7,8.3-2.5,2.9-5.7,5.3-9.7,7.3-4,2-9.1,2.9-15.4,2.9ZM591.7,1970.6h38.2c-.4-5.2-2.2-9.3-5.6-12.2-3.4-2.9-7.7-4.4-13.2-4.4s-9.8,1.5-13.2,4.4c-3.4,2.9-5.5,7-6.2,12.2Z"/>
    <path class="st4" d="M694.3,2014.1c-6.9,0-13-1.4-18.4-4.3-5.4-2.8-9.6-6.9-12.7-12.2-3.1-5.3-4.6-11.6-4.6-18.9v-2.1c0-7.3,1.5-13.6,4.6-18.8,3.1-5.3,7.3-9.4,12.7-12.2,5.4-2.9,11.5-4.3,18.4-4.3s13.1,1.4,18.5,4.3c5.4,2.9,9.7,7,12.7,12.2,3.1,5.3,4.6,11.5,4.6,18.8v2.1c0,7.3-1.5,13.6-4.6,18.9-3.1,5.3-7.3,9.4-12.7,12.2-5.4,2.8-11.6,4.3-18.5,4.3ZM694.3,2001.3c6.3,0,11.5-2,15.5-6.1,4-4.1,5.9-9.7,5.9-16.9v-1.3c0-7.2-2-12.8-5.9-16.9-3.9-4.1-9.1-6.1-15.5-6.1s-11.4,2-15.3,6.1c-4,4.1-5.9,9.7-5.9,16.9v1.3c0,7.2,2,12.8,5.9,16.9,4,4.1,9.1,6.1,15.3,6.1Z"/>
    <path class="st4" d="M819.7,2014.1c-11.9,0-21.4-3.4-28.4-10.2-7-6.8-10.5-16.5-10.5-29.3v-23c0-12.8,3.5-22.6,10.5-29.3,7-6.8,16.5-10.2,28.4-10.2s20.8,3.3,27.2,9.8c6.4,6.5,9.6,15.4,9.6,26.7v.8h-15v-1.3c0-6.6-1.8-12-5.4-16.2-3.6-4.2-9.1-6.3-16.5-6.3s-13.3,2.3-17.5,6.8c-4.2,4.5-6.3,10.8-6.3,18.8v23.5c0,7.9,2.1,14.2,6.3,18.8,4.2,4.6,10,6.9,17.5,6.9s12.9-2.1,16.5-6.4c3.6-4.2,5.4-9.6,5.4-16.2v-2.4h15v2c0,11.3-3.2,20.2-9.6,26.7-6.4,6.5-15.5,9.8-27.2,9.8Z"/>
    <path class="st4" d="M873.8,2012.2v-98h14.4v38.8h2.2c.9-1.8,2.3-3.5,4-5.2,1.7-1.7,4-3.1,6.9-4.1,2.8-1.1,6.5-1.6,10.8-1.6s9.9,1.2,13.9,3.5c4.1,2.3,7.3,5.6,9.6,9.9,2.3,4.2,3.5,9.4,3.5,15.3v41.4h-14.4v-40.3c0-6-1.5-10.4-4.5-13.2-3-2.8-7.1-4.3-12.3-4.3s-10.8,2-14.3,5.9c-3.6,3.9-5.4,9.6-5.4,17.1v34.9h-14.4Z"/>
    <path class="st4" d="M991.5,2014.1c-7,0-13.1-1.5-18.3-4.4-5.2-2.9-9.3-7.1-12.2-12.5-2.9-5.4-4.4-11.6-4.4-18.7v-1.7c0-7.2,1.4-13.5,4.3-18.8,2.9-5.4,6.9-9.5,12.1-12.5,5.2-2.9,11.2-4.4,18-4.4s12.4,1.5,17.4,4.4c5,2.9,8.9,7,11.7,12.2,2.8,5.2,4.2,11.3,4.2,18.3v5.5h-53.1c.2,6.1,2.2,10.9,6.1,14.5,3.9,3.6,8.7,5.4,14.5,5.4s9.5-1.2,12.2-3.6c2.8-2.4,4.9-5.2,6.4-8.4l11.9,6.2c-1.3,2.6-3.2,5.4-5.7,8.3-2.5,2.9-5.7,5.3-9.7,7.3-4,2-9.1,2.9-15.4,2.9ZM971.3,1970.6h38.2c-.4-5.2-2.2-9.3-5.6-12.2-3.4-2.9-7.7-4.4-13.2-4.4s-9.8,1.5-13.2,4.4c-3.4,2.9-5.5,7-6.2,12.2Z"/>
    <path class="st4" d="M1073.7,2014.1c-6.6,0-12.6-1.4-18-4.2-5.4-2.8-9.6-6.9-12.7-12.2-3.1-5.3-4.7-11.7-4.7-19.2v-1.8c0-7.5,1.6-13.8,4.7-19.1,3.1-5.3,7.4-9.3,12.7-12.2,5.4-2.8,11.4-4.3,18-4.3s12.3,1.2,16.9,3.6c4.7,2.4,8.4,5.6,11.3,9.7,2.8,4,4.7,8.4,5.5,13.3l-14,2.9c-.5-3.1-1.4-5.9-2.9-8.4-1.5-2.5-3.6-4.5-6.3-6-2.7-1.5-6.1-2.2-10.2-2.2s-7.6.9-10.9,2.7c-3.2,1.8-5.8,4.4-7.6,7.8-1.9,3.4-2.8,7.5-2.8,12.4v1.3c0,4.9.9,9,2.8,12.5,1.9,3.5,4.4,6.1,7.6,7.8,3.2,1.8,6.8,2.7,10.9,2.7,6.1,0,10.7-1.6,13.9-4.7,3.2-3.1,5.2-7.1,6-12l14,3.2c-1.1,4.8-3.1,9.1-6,13.2-2.8,4-6.6,7.2-11.3,9.6-4.7,2.4-10.3,3.6-16.9,3.6Z"/>
    <path class="st4" d="M1124.5,2012.2v-98h14.4v55.9h2.2l27.2-26.9h19.2l-34.9,33.5,36,35.6h-19l-28.4-28.7h-2.2v28.7h-14.4Z"/>
    <path class="st4" d="M1229.3,2014.1c-7,0-13.1-1.5-18.3-4.4-5.2-2.9-9.3-7.1-12.2-12.5-2.9-5.4-4.4-11.6-4.4-18.7v-1.7c0-7.2,1.4-13.5,4.3-18.8,2.9-5.4,6.9-9.5,12.1-12.5,5.2-2.9,11.2-4.4,18-4.4s12.4,1.5,17.4,4.4c5,2.9,8.9,7,11.7,12.2,2.8,5.2,4.2,11.3,4.2,18.3v5.5h-53.1c.2,6.1,2.2,10.9,6.1,14.5,3.9,3.6,8.7,5.4,14.5,5.4s9.5-1.2,12.2-3.6c2.8-2.4,4.9-5.2,6.4-8.4l11.9,6.2c-1.3,2.6-3.2,5.4-5.7,8.3-2.5,2.9-5.7,5.3-9.7,7.3-4,2-9.1,2.9-15.4,2.9ZM1209.2,1970.6h38.2c-.4-5.2-2.2-9.3-5.6-12.2-3.4-2.9-7.7-4.4-13.2-4.4s-9.8,1.5-13.2,4.4c-3.4,2.9-5.5,7-6.2,12.2Z"/>
    <path class="st4" d="M1279.5,2012.2v-69h14.1v8.1h2.2c1.1-2.9,2.9-5,5.4-6.4,2.5-1.4,5.5-2,9.2-2h8.3v13h-8.8c-4.7,0-8.5,1.3-11.5,3.9-3,2.6-4.5,6.5-4.5,11.8v40.6h-14.4Z"/>
  </g>
</svg>