<?xml version="1.0" encoding="UTF-8"?>
<svg id="Layer_1" xmlns="http://www.w3.org/2000/svg" version="1.1" viewBox="0 0 1024 1024">
  <!-- Generator: Adobe Illustrator 30.2.1, SVG Export Plug-In . SVG Version: 2.1.1 Build 1)  -->
  <defs>
    <style>
      .st0 {
        fill: #d9593d;
      }

      .st1 {
        fill: #f2a444;
      }
    </style>
  </defs>
  <path class="st1" d="M873.7,655.1c0,0,0,.1,0,.2,0,0,0-.1,0-.2Z"/>
  <path class="st1" d="M873.3,656.1c0,0-.1.2-.2.3,0,0,.1-.2.2-.3Z"/>
  <polygon class="st1" points="682.2 657.8 682.2 657.8 682.2 657.8 574.2 657.8 574.2 657.8 682.2 657.8"/>
  <path class="st1" d="M873.6,655.6c0,0,0,.2,0,.2,0,0,0-.2,0-.2Z"/>
  <path class="st1" d="M528,656.8c.5.5,1,.8,1.7.9-.7-.1-1.2-.4-1.7-.9Z"/>
  <path class="st1" d="M527.1,655.1c.1.7.4,1.2.9,1.7-.5-.5-.8-1-.9-1.7Z"/>
  <path class="st1" d="M871.5,657.6c.2,0,.3-.1.5-.2-.1,0-.3.1-.5.2h0Z"/>
  <path class="st1" d="M872,657.4c.4-.2.8-.5,1.1-.9-.3.4-.6.7-1.1.9Z"/>
  <path class="st1" d="M561.8,657.8h0s-31.4,0-31.4,0c-.2,0-.5,0-.7,0,.2,0,.5,0,.7,0h31.4Z"/>
  <polygon class="st1" points="871.5 657.6 871.5 657.6 871.5 657.6 871.5 657.6 871.5 657.6"/>
  <polygon class="st1" points="682.2 657.8 682.2 657.8 682.2 657.8 682.2 657.8"/>
  <g>
    <path class="st0" d="M166.4,248.5c19.5-11.6,38-25.5,57.4-39.4,0,0,0,0,0,0,29.3-28.7,51.2-66.1,68.1-108.2,5.6-13.7,10.6-27.8,15.4-42.2h0c-5.2,3.3-10.4,6.7-15.4,10.2-1.7,1.2-3.3,2.4-5,3.6-16.2,36.9-36.9,69.5-63.2,95.8-12.3,12.3-25.5,23-39.6,32.3-.4.9-.8,1.7-1.1,2.6-6.5,14.6-12.1,29.7-16.7,45.4h0Z"/>
    <path class="st0" d="M861.1,299.6h2.8c.7,0,1.1-.1,1.5-.3.4-.2.6-.4.8-.7.1-.2.2-.4.2-.5,0-.2,0-.4,0-.5,0,0,0-.2,0-.2,0-.2,0-.4-.1-.5-1.7.9-3.4,1.9-5.2,2.8h0Z"/>
    <path class="st0" d="M871.5,657.6h0c-.3.1-.7.2-1.1.2h-31.1c-1.5.4-3,.8-4.5,1.1,0,0,0,0,0,0-15.7,4.2-30.5,7.4-38.9,10.6,0,0,0,0,0,0-28.5,7.9-56.8,10.9-84.7,14.2,0,0,0,0,0,0-.7,0-1.4.1-2,.2-10.5,1-21.1,2-31.5,3.1,0,.5-.1.9-.2,1.4-.6,3.6-1.2,7.1-1.9,10.5-1.1,5.2-2.3,10.2-3.8,15.2-1.8,6.3-4,12.3-6.5,18.1,14.4-1.8,28.9-3.2,43.5-4.6,4.4-.4,8.8-.8,13.3-1.3.7,0,1.4-.1,2-.2,0,0,0,0,0,0,23.4-2.4,47.2-4.1,70.5-11.1,0,0,0,0,0,0,4.8-1.1,9.6-2.4,14.3-3.7,7.6-2.1,15.2-4.4,22.7-7,5-1.7,9.8-3.7,14.8-5.3,0,0,0,0,0,0,8.6-3.3,17.2-6.7,25.7-10.4.7-9.2,1.3-18.5,1.5-28,0,0,0,0,0-.2h0c0-.7-.1-2.4-2.1-2.9Z"/>
    <path class="st0" d="M226.4,253.9s0,0,0,0c29.5-28.3,51.2-65.5,68.4-107.2,13.1-31.6,23.6-65.7,33.7-100.1-2.7,1.4-5.4,2.8-8.1,4.3-2.3,1.3-4.7,2.7-7,4h0c-5.4,16.6-11.1,32.9-17.3,48.7,0,0,0,0,0,0-17.2,42.6-39.9,80-69.7,109.2-18.9,18.6-39.9,33.5-62.6,44.9-1.8,6.8-3.5,13.8-5,20.8s-2.8,14.2-3.9,21.4h0s0,0,0,0c25-12.4,47.6-29.3,71.5-46.3Z"/>
    <path class="st0" d="M239.5,477.6c30.2-26.1,51.7-62.4,69.6-102,27.6-60,44.7-130.2,69.2-193.3,1.9-4.8,3.8-9.6,5.7-14.3,6.3-15.2,13.3-29.8,21-43.5,2.9-5.1,5.5-10.3,9-14.8,0,0,0,0,0,0,15.6-24.1,34.3-43.9,55.4-58.9,16.1-11.5,33.6-20.2,52.4-25.8,5.7-1.7,11.5-3.1,17.5-4.2,13.5-2.5,27.2-4,40.9-4.8,6.4-.4,12.8-.6,19.2-.8,0,0,0,0,0,0-28.5-6.7-58.3-10.1-89.4-10.1s-28,.8-42.9,2.4h0c-1,.7-1.9,1.5-2.9,2.2-20.1,15.6-36.2,36.9-52.5,60.3,0,0,0,0,0,0,0,0,0,0,0,0-10.9,17.7-20.4,37.3-28.6,58-13.5,33.8-24.5,70.1-35.9,106.2-10.9,34.1-23,67.7-36.2,99.5,0,0,0,0,0,0-18,40.6-41.3,75.8-71.8,102.9-26.7,23.7-57,41-89.9,51.6v38c32.5-10.5,60.8-28.9,90.2-48.6,0,0,0,0,0,0Z"/>
    <path class="st0" d="M260.3,835.5c31.3-22.6,52.4-57.4,71.6-93.8,5.6-10.3,10.7-21,15.7-32-2-8-3.4-16.3-4.1-24.9,0-.7,0-1.4-.2-2.1-2.9,6.4-5.7,12.7-8.5,19,0,0,0,0,0,0-19.3,37.3-43.6,69.3-75.2,92.8-23,17.1-48,30.3-74.5,39,2.2,4.5,4.6,9,7,13.5.8,1.5,1.6,2.9,2.5,4.4,2.6,4.5,5.3,9,8.1,13.3,19.7-7.6,38.7-17.6,57.6-29.1,0,0,0,0,0,0Z"/>
    <path class="st0" d="M608.3,995.6c-13.4,4.8-26.4,10.8-38.9,18.1,32.7-3.9,63.3-11.5,91.8-22.6,3.7-1.4,7.3-2.9,10.9-4.5,1.8-.8,3.6-1.6,5.4-2.4,3.6-1.6,7.1-3.3,10.6-5,2.8-1.4,5.6-2.8,8.4-4.3-17.5,2.6-34.9,5.8-52,9.9-12.2,3-24.3,6.5-36.2,10.8Z"/>
    <path class="st0" d="M439.5,825.5c2.2-4.2,4.6-8.3,6.9-12.4-2.5-.8-5-1.6-7.4-2.6-2.9-1.1-5.7-2.2-8.4-3.4-12.3,26.3-23.4,53.9-34.7,81.3-13.1,31.3-29.1,60.9-43.1,90.1,0,0,0,0,0,0-1.4,2.4-2.9,4.8-4.3,7.2,5,2.1,10,4.1,15.1,6,25.1-48.5,44.4-103.7,69.3-153.2,2.2-4.4,4.4-8.7,6.7-12.9Z"/>
    <path class="st0" d="M443.4,872.8c7.4-13.5,15.3-26.5,23.9-38.6,3.2-4.5,6.4-8.9,9.9-12.9,0,0,0,0,0,0,.2-.3.4-.5.6-.8,0,0-.2,0-.3,0-7.7-1.2-15.3-2.8-22.6-4.8-5,8.3-9.7,17-14.2,25.9-15.1,29.9-28.1,62.1-41.6,93.9-8.7,20.3-18.6,39.8-28.3,58.9.2,0,.4.1.6.2,3.8,1.3,7.5,2.5,11.4,3.7.8.3,1.7.5,2.6.8,17.1-37.6,32.6-77,51.2-113.4,2.2-4.3,4.4-8.6,6.7-12.8Z"/>
    <path class="st0" d="M221.2,164.4s0,0,0,0c23.7-23.7,42.6-53,57.9-85.9h0c-.6.5-1.2.9-1.8,1.4-3,2.4-5.9,4.8-8.8,7.2-1.4,1.2-2.9,2.5-4.3,3.7-4.2,3.8-8.4,7.6-12.4,11.6-2.7,2.7-5.3,5.4-7.9,8.1s-5.1,5.6-7.6,8.4c-1.2,1.4-2.5,2.9-3.7,4.3-3.7,4.4-7.2,8.8-10.7,13.4-2.3,3.1-4.5,6.2-6.7,9.3-5.5,7.9-10.7,16.1-15.6,24.6-2,3.4-3.9,6.9-5.7,10.4-.9,1.8-1.9,3.5-2.8,5.3h0c9.9-7.1,19.8-14.5,30.1-21.9Z"/>
    <path class="st0" d="M726.7,922.6c-.7,0-1.3.2-2,.2-28.2,3.4-56.2,7.2-83.5,13.6-12.3,2.9-24.4,6.3-36.4,10.5-21.5,7.5-41.8,18.3-60.7,32.3-14.3,10.7-27.7,23.3-40.3,37.6,3.5,0,6.9.1,10.4.1,14.1,0,27.7-.6,41.1-1.7.6-.3,1.2-.7,1.8-1,16-8.8,32.7-15.9,49.2-22,5.2-1.9,10.4-3.7,15.7-5.3,12.1-3.7,24.4-6.8,36.8-9.4,15.7-3.3,31.6-5.8,47.5-8,2.6-1.5,5.1-3,7.6-4.5,8.3-5,16.3-10.4,24-16.1,3.1-2.3,6.1-4.6,9.1-6.9,3-2.4,5.9-4.8,8.8-7.2,1.4-1.2,2.9-2.5,4.3-3.7,2.8-2.5,5.6-5.1,8.3-7.7,2.6-2.5,5.1-5,7.6-7.6-16.6,2.7-33,4.7-49.3,6.8,0,0,0,0,0,0Z"/>
    <path class="st0" d="M242.1,522.3c30.3-25.7,51.8-61.7,69.9-101,13.6-29,24.7-60.5,35.4-92.4,3.1-14.8,7.7-28.7,13.9-41.7,6.6-19.7,13.5-39.3,21-58.2,1.9-4.8,3.8-9.5,5.8-14.2,6.4-15.1,13.4-29.6,21.2-43.2,2.9-5,5.5-10.2,9.1-14.7,0,0,0,0,0,0,15.7-23.8,34.5-43.4,55.6-58.3,16.1-11.4,33.6-20,52.2-25.6,5.7-1.7,11.5-3.2,17.4-4.3,13.5-2.6,27-4.1,40.7-5,24.5-1.6,49.3-1.3,74.1-1.8,4.7,0,9.4-.2,14.1-.4.7,0,1.4,0,2.2,0,0,0,0,0,0,0,10.4-.5,20.8-1.1,31.2-2.4-4.4-2.7-8.9-5.4-13.5-8-3-1.7-6-3.3-9.1-4.9s-6.2-3.2-9.3-4.7c-7.8-3.8-15.8-7.3-23.8-10.5-10.3-4.1-20.8-7.7-31.4-10.9h0c-14.4.2-28.7.5-42.8,1.5-13.6.9-27.1,2.5-40.4,5.2-24.8,4.9-47.2,15.6-67.2,31.1-20,15.5-36.2,36.7-52.5,59.9,0,0,0,0,0,0,0,0,0,0,0,0-11,17.6-20.4,37-28.7,57.6-13.6,33.5-24.7,69.6-36.3,105.4-11,33.9-23.5,67.2-36.7,98.8,0,0,0,0,0,0-18.1,40.1-41.6,75-72.3,101.6-27.5,23.9-58.7,41.2-92.5,51.4v37.9c33.5-10,62.6-28.3,92.8-48.3,0,0,0,0,0,0Z"/>
    <path class="st0" d="M231.6,343.4c29.7-27.4,51.4-64.2,68.9-105.1,26.5-61.3,42.6-132.3,66.2-196.3,1.7-4.6,3.4-9.1,5.1-13.6-4.4,1.5-8.7,3.1-12.9,4.7-1.4.5-2.8,1.1-4.1,1.6h0c-6.2,19.6-12,39.6-17.9,59.5-10.4,34.7-21.7,69.1-34.7,101.5,0,0,0,0,0,0-17.5,41.8-40.4,78.4-70.6,106.7-24.2,22.9-51.8,40.1-81.8,51.7-.1,3.5-.2,7-.3,10.5s-.1,7.1-.1,10.6h0v17.2c29.3-11.9,55.1-30.3,82.4-49.1,0,0,0,0,0,0Z"/>
    <path class="st0" d="M840.3,755.9c-16,3.9-31,6.6-39,9.6,0,0,0,0,0,0-28.3,7.3-56.3,10.4-83.9,13.8,0,0,0,0,0,0-.7,0-1.3.1-2,.2-28.5,3.1-56.8,6.1-84.4,11.8-5.7,1.2-11.4,2.5-17.1,3.9-3.7,2.5-7.6,4.9-11.6,7.1-15.2,8.4-32,14.2-50.4,17.5-6.8,4-13.4,8.4-19.8,13.2-19.2,14.4-36.5,32.6-52.4,53.6,0,0,0,0,0,0,0,0,0,0,0,0-11.5,15.6-21.8,32.6-31.2,50.6-11.6,22.3-22.1,45.9-32.4,69.6,2.7.6,5.4,1.2,8.2,1.7,1.8.3,3.6.7,5.3,1,4.8-10,9.7-20,14.8-29.7,2.2-4.3,4.5-8.5,6.9-12.6,7.5-13.3,15.6-26,24.3-38,3.2-4.4,6.5-8.7,10-12.7,0,0,0,0,0,0,17.2-20.1,37.2-35.5,58.5-47.7,16-9.2,32.8-16.5,49.7-22.5,5.3-1.9,10.6-3.6,15.9-5.1,12.3-3.6,24.8-6.4,37.4-8.7,22.7-4.2,45.7-6.8,68.8-9.3,4.4-.5,8.7-.9,13.1-1.4.7,0,1.3-.1,2-.2,0,0,0,0,0,0,23.1-2.6,46.8-4.2,69.9-11,0,0,0,0,0,0,4.8-1.1,9.5-2.2,14.3-3.5,7.6-2,15.2-4.2,22.7-6.5,4-1.3,7.9-2.6,11.8-4,3.4-9.5,6.5-19.2,9.1-29.1,1.6-5.8,3-11.7,4.3-17.7-7.5,2.2-15.2,4.4-22.8,6,0,0,0,0,0,0Z"/>
    <path class="st0" d="M807.3,176.7c-14.2,6.2-28.1,11.2-38.7,15.8,0,0,0,0,0,0-29.7,10.8-59.4,13.4-88.8,16.2,0,0,0,0,0,0-.7,0-1.4,0-2.1.1-29.7,1.6-59.2,1.7-88.1,4.7-1.8.2-3.5.4-5.3.6,17.5,7.7,33.1,18.1,46.7,31.2,2.5,2.5,5,5,7.3,7.6,11.4-.5,22.9-.8,34.4-1.3,4.6-.2,9.2-.4,13.9-.7.7,0,1.4,0,2.1-.1,0,0,0,0,0,0,24.5-1.5,49.2-3.7,73.4-11.6,0,0,0,0,0,0,4.9-1.4,9.8-3,14.7-4.8,7.8-2.8,15.4-5.9,22.9-9.3,5-2.3,9.7-5.1,14.7-7.1,0,0,0,0,0,0,7.3-3.8,14.6-7.7,21.7-12-4.4-9.3-9.2-18.3-14.4-27.1-1.3-2.2-2.6-4.3-3.9-6.5h0c-3.4,1.6-6.9,3.1-10.4,4.2,0,0,0,0,0,0Z"/>
    <path class="st0" d="M843,804.4c-16.2,3.7-31.2,6.2-39,9.1,0,0,0,0,0,0-28.2,7-56,10.2-83.5,13.6,0,0,0,0,0,0-.7,0-1.3.1-2,.2-28.4,3.2-56.6,6.4-84.1,12.4-12.4,2.7-24.7,5.9-36.8,9.9-21.8,7.2-42.4,18-61.4,32.2-19.2,14.3-36.5,32.3-52.4,53.2,0,0,0,0,0,0,0,0,0,0,0,0-11.5,15.5-21.9,32.3-31.4,50.2-4.5,8.5-8.8,17.2-13.1,26.1,3.2.5,6.5,1,9.7,1.4,2.3.3,4.5.6,6.8.9,7.4-12.8,15.3-25.1,23.9-36.6,3.2-4.4,6.5-8.6,10.1-12.6,0,0,0,0,0,0,17.2-19.8,37.4-35,58.7-47.1,16-9.1,32.8-16.3,49.6-22.3,5.2-1.9,10.5-3.6,15.9-5.2,12.3-3.6,24.7-6.5,37.2-8.9,22.6-4.4,45.5-7.1,68.4-9.7,4.4-.5,8.7-1,13.1-1.5.7,0,1.3-.1,2-.2,0,0,0,0,0,0,23-2.7,46.6-4.3,69.6-11h0c4.8-1,9.5-2.2,14.2-3.4,1.5-.4,3-.8,4.5-1.2,2.5-4.3,5-8.7,7.4-13.2,1.7-3.3,3.4-6.6,5-9.9.8-1.7,1.6-3.3,2.4-5,1.6-3.4,3.1-6.8,4.5-10.2.7-1.7,1.4-3.4,2.2-5.2.9-2.3,1.9-4.7,2.8-7-1.4.3-2.7.6-4.1.9,0,0,0,0,0,0Z"/>
    <path class="st0" d="M812.8,272.9s0,0,0,0c-14.5,5.8-28.6,10.5-38.7,14.8,0,0,0,0,0,0-17.7,6.2-35.4,9.6-53.1,12,0,0,0,0,0,0h126.8c5.7-3.3,11.2-6.7,16.8-10.2-2.8-12.6-6.2-24.9-10.1-36.8-1.5.8-3,1.6-4.6,2.4-11.8,6.1-23.9,14-37.1,17.9Z"/>
    <path class="st0" d="M680.2,660.7c-.3,5.7-.7,11.4-1.3,16.9-.2,1.6-.4,3.2-.6,4.7,8.9-.9,17.9-1.7,26.8-2.5,4.4-.4,8.9-.8,13.3-1.2.7,0,1.4-.1,2-.2,0,0,0,0,0,0,23.5-2.3,47.4-4.1,70.8-11.2,0,0,0,0,0,0,4.8-1.2,9.6-2.4,14.4-3.8,6.1-1.7,12.1-3.6,18.1-5.6h-141.5c-.2.1-.5.2-.6.4,0,0,0,0,0,0-.6.4-.9,1-1,1.5,0,0,0,0,0,0-.1.3-.2.7-.2.9,0,0,0,0,0,0,0,.1,0,.2,0,.3,0,0,0,0,0,0,0,0,0,0,0,0h0s-.1-.3-.1-.3Z"/>
    <path class="st0" d="M236.9,432.8c30-26.5,51.6-63,69.4-103.1,27.2-60.4,44-130.9,68.2-194.3,1.8-4.8,3.7-9.7,5.7-14.4,6.2-15.3,13.1-30,20.8-43.8,2.9-5.1,5.4-10.4,8.9-14.9,0,0,0,0,0,0,13.6-21.3,29.6-39.4,47.5-53.7-.1,0-.3,0-.4,0-2,.3-4.1.6-6.2.9-8.2,1.2-16.6,2.6-24.9,4.3-4.9,1-9.8,2.1-14.7,3.2h0c-1.2,1.7-2.3,3.3-3.5,5,0,0,0,0,0,0,0,0,0,0,0,0-10.9,17.8-20.3,37.5-28.4,58.4-13.4,34.1-24.2,70.6-35.5,107.1-10.7,34.3-22.6,68.2-35.7,100.2,0,0,0,0,0,0-17.8,41-41,76.7-71.4,104.2-25.9,23.5-55.4,40.8-87.4,51.8h0v38.1c31.4-11,58.9-29.5,87.6-48.9,0,0,0,0,0,0Z"/>
    <path class="st0" d="M229,298.6s0,0,0,0c29.6-27.8,51.3-64.9,68.6-106.1,20.5-48.5,34.7-103,51.1-155.3h0c-2.3,1-4.7,2-7,3-1.9.8-3.7,1.7-5.5,2.6-.6.3-1.2.6-1.8.9-.4,1.3-.8,2.6-1.1,3.9-10.2,34.9-21.3,69.6-34.3,102.2,0,0,0,0,0,0-17.3,42.2-40.1,79.2-70.1,107.9-22.3,21.6-47.6,38.1-75.2,49.9-.5,3.6-.9,7.2-1.4,10.8-1.1,9.5-1.9,19.2-2.4,29,28-12.3,52.8-30.4,79.1-48.8Z"/>
    <path class="st0" d="M447.3,920.1c7.4-13.4,15.4-26.2,24.1-38.3,3.2-4.5,6.4-8.8,10-12.8,0,0,0,0,0,0,16.5-19.6,35.6-34.9,56.1-47.1-7.6.8-15.4,1.2-23.5,1.2s-12.5-.2-18.6-.7c-2.2-.2-4.3-.4-6.5-.6-4.5,5.3-8.9,10.8-13.2,16.5,0,0,0,0,0,0,0,0,0,0,0,0-11.4,15.7-21.7,32.9-31.1,51.1-15.2,29.7-28.4,61.6-42,93.1-2.8,6.4-5.7,12.8-8.7,19,.2,0,.3,0,.5.1,1.9.5,3.9,1.1,5.9,1.6,2.2.6,4.4,1.1,6.6,1.6,10.8-24.4,21.6-48.9,33.6-72.1,2.2-4.3,4.5-8.5,6.8-12.7Z"/>
    <path class="st0" d="M806.7,861.5c-28,6.7-55.8,9.9-83.1,13.4,0,0,0,0,0,0-.7,0-1.3.2-2,.2-28.3,3.3-56.4,6.8-83.8,13-12.4,2.8-24.6,6.1-36.6,10.2-21.7,7.3-42.1,18.1-61.1,32.3-19.1,14.3-36.5,32.1-52.4,52.8,0,0,0,0,0,0,0,0,0,0,0,0-7.5,9.9-14.5,20.4-21.1,31.4,2.6.3,5.3.5,7.9.7,4.3.3,8.7.6,13,.9.9,0,1.8,0,2.7.1,1.2-1.4,2.4-2.8,3.6-4.2,0,0,0,0,0,0,17.3-19.6,37.5-34.6,58.9-46.4,16-8.9,32.7-16.1,49.4-22.1,5.2-1.9,10.5-3.6,15.8-5.2,12.2-3.7,24.5-6.7,37-9.2,22.5-4.5,45.2-7.5,68.1-10.2,4.3-.5,8.7-1,13-1.5.7,0,1.3-.2,2-.2,0,0,0,0,0,0,13.7-1.7,27.5-2.9,41.4-5,.3-.3.6-.6.9-1,2.6-2.8,5.1-5.6,7.6-8.4,1.2-1.4,2.5-2.9,3.7-4.3,2.4-2.9,4.8-5.9,7.2-8.9,7.8-10,15-20.6,21.8-31.7-5.7,1.2-10.5,2.3-13.9,3.5,0,0,0,0,0,0Z"/>
    <path class="st0" d="M252.5,701.2c30.9-23.9,52.1-59.2,70.9-96.9,7-13.8,13.4-28.2,19.4-43v-37.4c-5.6,13.4-11.2,26.7-16.9,39.7,0,0,0,0,0,0-18.8,38.5-42.8,71.7-73.9,96.6-30.2,24-64.2,40.9-100.8,49.3.7,7.1,1.5,14.1,2.5,21.1.7,5.1,1.6,10,2.5,15h0c34.7-8.3,65.3-24.8,96.3-44.3,0,0,0,0,0,0Z"/>
    <path class="st0" d="M673.6,114c-.7,0-1.4,0-2.2,0-29.9,1.3-59.6.9-88.7,3.5-13.5,1.1-26.8,2.9-40,5.7-24.4,5.2-46.6,15.9-66.5,31.2-19.9,15.4-36.3,36.2-52.5,59.1,0,0,0,0,0,0,0,0,0,0,0,0-1.9,3-3.8,6.1-5.6,9.2,1.4-.9,2.8-1.7,4.2-2.5,15.3-8.9,32.2-15,50.5-18.5,3.3-2.5,6.6-5,9.9-7.3,16.1-11.1,33.5-19.5,51.9-25.2,5.6-1.7,11.3-3.2,17.2-4.4,13.3-2.7,26.8-4.4,40.3-5.5,24.3-1.9,48.8-2,73.4-2.7,4.7-.1,9.3-.3,14-.5.7,0,1.4,0,2.1-.1,0,0,0,0,0,0,24.7-1.3,49.5-3.6,74-11.7,0,0,0,0,0,0,4.9-1.5,9.8-3.1,14.7-5,6.2-2.3,12.4-4.9,18.4-7.7-.9-1.1-1.8-2.1-2.6-3.2-2.2-2.6-4.5-5.2-6.8-7.8-2.3-2.5-4.6-5.1-6.9-7.5-1.2-1.2-2.4-2.5-3.5-3.7-3.5-3.6-7.1-7.1-10.7-10.5-28.2,9.8-56.5,12.2-84.5,14.8,0,0,0,0,0,0Z"/>
    <path class="st0" d="M670.4,66.7c-.7,0-1.4,0-2.2,0-29.9,1.2-59.8.6-89,2.9-13.5,1-26.9,2.7-40.2,5.5-24.6,5.1-46.9,15.8-66.8,31.2-20,15.4-36.3,36.4-52.5,59.5,0,0,0,0,0,0,0,0,0,0,0,0-11,17.5-20.5,36.7-28.9,57.1-5.3,12.8-10.2,26-14.9,39.4.8-1.1,1.6-2.2,2.4-3.2,2.2-2.9,4.4-5.6,6.8-8.3,1.8-2,3.6-4,5.5-5.9,1.3-1.3,2.5-2.5,3.8-3.8,1.9-1.8,3.9-3.6,5.9-5.3,2.1-1.8,4.3-3.5,6.5-5.2,2.1-4,4.3-8,6.6-11.8,2.9-5,5.6-10.1,9.1-14.6,0,0,0,0,0,0,15.8-23.6,34.6-42.9,55.8-57.6,16.1-11.2,33.5-19.8,52-25.4,5.6-1.7,11.4-3.2,17.3-4.4,13.4-2.7,26.9-4.3,40.5-5.2,24.4-1.8,49.1-1.6,73.7-2.3,4.7-.1,9.4-.3,14-.5.7,0,1.4,0,2.1,0,0,0,0,0,0,0,24.8-1.2,49.7-3.5,74.2-11.7,0,0,0,0,0,0,.9-.3,1.7-.5,2.6-.8h0c-.3-.2-.5-.5-.8-.7-3.8-3.4-7.6-6.7-11.5-10-2.6-2.2-5.2-4.3-7.9-6.3-1.3-1-2.7-2.1-4-3.1-4.1-3.1-8.2-6-12.4-8.9-2.5-1.7-5-3.3-7.5-5-13.5,2-26.9,3.1-40.3,4.3,0,0,0,0,0,0Z"/>
    <path class="st0" d="M765.9,144.9c-29.8,11.1-59.7,13.7-89.2,16.4,0,0,0,0,0,0-.7,0-1.4,0-2.1.1-29.8,1.5-59.4,1.3-88.4,4.1-13.4,1.2-26.7,3.1-39.8,6-22.8,5-43.8,14.8-62.6,28.7,8.4-1.1,17.1-1.6,26.1-1.6s8,0,11.5.2c2.6,0,5.1.2,7.5.4,1.6.1,3.1.2,4.6.4s2.9.3,4.3.5c5.5.7,10.3,1.6,14.9,2.8,1.2.3,2.3.6,3.4.9,5.8,1.7,11.5,3.7,18.1,6.2,7.3-1.1,14.5-1.9,21.8-2.5,24.2-2.1,48.6-2.3,73.1-3.2,4.6-.2,9.3-.4,13.9-.6.7,0,1.4,0,2.1-.1,0,0,0,0,0,0,24.6-1.4,49.4-3.6,73.7-11.6,0,0,0,0,0,0,4.9-1.5,9.8-3.1,14.7-4.9,7.8-2.9,15.4-6,22.9-9.5,5-2.3,9.6-5.3,14.7-7.3,0,0,0,0,0,0,1.3-.7,2.6-1.4,3.9-2.1-1.4-2.2-2.8-4.3-4.2-6.4-3.8-5.7-7.7-11.3-11.8-16.7-2.6-3.5-5.3-6.9-8.1-10.3h0c-9.1,3.8-17.8,7.2-25,10.4,0,0,0,0,0,0Z"/>
    <path class="st0" d="M244.7,567c30.4-25.2,51.9-61.1,70.1-100,10.5-21.9,19.5-45.3,28-69.1v-22.8c0-5.7.2-11.2.6-16.6-8.3,22.9-17.2,45.4-26.4,67.2,0,0,0,0,0,0-18.3,39.7-41.9,74.2-72.7,100.4-28.3,24.1-60.4,41.3-95.1,51.1v37.7c34.6-9.5,64.5-27.6,95.5-47.8,0,0,0,0,0,0Z"/>
    <path class="st0" d="M263,880.2c31.4-22.2,52.5-56.7,71.9-92.8,8.5-15.5,16.1-31.8,23.3-48.6-.5-1-1-2-1.5-3-1.4-3.1-2.8-6.3-4-9.6-.6-1.6-1.2-3.3-1.7-4.9-.2-.5-.3-1.1-.5-1.6-4.3,9.4-8.5,18.6-12.7,27.8,0,0,0,0,0,0-19.4,36.9-43.9,68.4-75.6,91.5-17.5,12.7-36.2,23.3-55.7,31.3,2.1,3.1,4.3,6.2,6.5,9.3,2.2,3,4.4,6,6.7,8.9,1.1,1.5,2.3,2.9,3.5,4.4,1.6,2,3.3,4,5,6,11.7-5.5,23.3-11.8,34.8-18.7,0,0,0,0,0,0Z"/>
    <path class="st0" d="M837.6,707.4c-15.9,4.1-30.8,7-39,10.1,0,0,0,0,0,0-28.4,7.6-56.5,10.7-84.3,14,0,0,0,0,0,0-.7,0-1.3.1-2,.2-16.5,1.7-33,3.3-49.3,5.5-.8,1.6-1.5,3.2-2.4,4.8-4.3,8.2-9.1,15.9-14.5,22.9-2.2,2.8-4.4,5.5-6.7,8.1-5,5.6-10.4,10.7-16.2,15.4,6.6-1.5,13.3-2.8,20-4,22.8-4,45.9-6.5,69.1-8.8,4.4-.4,8.8-.9,13.2-1.4.7,0,1.3-.1,2-.2,0,0,0,0,0,0,23.2-2.5,47-4.2,70.2-11.1,0,0,0,0,0,0,4.8-1.1,9.6-2.3,14.3-3.6,7.6-2.1,15.2-4.3,22.7-6.8,5-1.6,9.9-3.5,14.8-5.1,0,0,0,0,0,0,5.1-1.9,10.2-3.8,15.3-5.8.2-.8.3-1.5.5-2.3.7-3.8,1.4-7.7,2.1-11.6s1.2-7.8,1.8-11.8c.8-6.1,1.6-12.2,2.2-18.4-10.7,3.5-22.3,7.5-33.7,9.9,0,0,0,0,0,0Z"/>
    <path class="st0" d="M257.7,790.7c31.1-23,52.3-58,71.4-94.9,4.8-9.1,9.4-18.6,13.7-28.2v-36.8c-3.6,8.3-7.3,16.5-10.9,24.7,0,0,0,0,0,0-19.1,37.7-43.3,70.1-74.8,94-26.9,20.5-56.7,35.5-88.4,44.1,0,0,0,.1,0,.2,1.2,3.7,2.5,7.3,3.9,10.9,1.4,3.6,2.8,7.1,4.3,10.7.7,1.8,1.5,3.5,2.3,5.3.9,2.1,1.9,4.2,2.9,6.3h0c26.4-8.4,51-21.1,75.6-36.3,0,0,0,0,0,0Z"/>
    <path class="st0" d="M249.9,656.5c30.7-24.3,52.1-59.9,70.6-97.9,8.1-16.3,15.4-33.5,22.3-51.2v-37.6c-6.5,16.2-13.1,32.2-19.9,47.8,0,0,0,0,0,0-18.6,38.9-42.5,72.5-73.5,97.8-29.9,24.3-63.7,41.4-100.2,50.3v2.1c0,11.9.5,23.6,1.3,35,36-8.4,67.4-25.9,99.3-46.3,0,0,0,0,0,0Z"/>
    <path class="st0" d="M247.3,611.8c30.6-24.8,52-60.5,70.4-99,9.3-19,17.5-39.2,25.1-59.9v-37.7c-7.3,19.2-15,38.1-22.9,56.4,0,0,0,0,0,0-18.5,39.3-42.2,73.4-73.1,99.1-29.1,24.2-62,41.4-97.6,50.7v37.5c35.6-8.9,66.4-26.8,98.1-47.2,0,0,0,0,0,0Z"/>
    <path class="st0" d="M255.1,746c31-23.5,52.2-58.6,71.1-95.9,5.9-11.4,11.4-23.2,16.6-35.4v-37.1c-4.6,10.8-9.3,21.5-13.9,32,0,0,0,0,0,0-18.9,38.1-43,70.9-74.4,95.3-29.2,22.8-62,39-97,47.4,1.4,6.5,2.9,13,4.5,19.3.5,1.9,1,3.8,1.6,5.7.9,3.3,1.9,6.6,3,9.9,31.5-8.4,59.9-23.3,88.5-41.2,0,0,0,0,0,0Z"/>
    <path class="st0" d="M265.6,924.9c31.6-21.7,52.6-56.1,72.1-91.8,12.6-22.6,23.5-47.1,33.8-72.3-1.7-2.3-3.3-4.6-4.8-7-.9-1.4-1.8-2.9-2.7-4.4-.5-.9-1-1.8-1.5-2.7-7.2,15.8-14.5,31.4-21.6,46.7,0,0,0,0,0,0-19.6,36.5-44.2,67.6-76.1,90.3-10.4,7.4-21.3,14.1-32.5,19.9.5.6,1.1,1.2,1.6,1.8,1.2,1.4,2.5,2.7,3.7,4.1,2.5,2.7,5.1,5.3,7.7,7.9,4.1,4,8.3,8,12.6,11.8,2.5-1.4,5.1-2.9,7.6-4.4,0,0,0,0,0,0Z"/>
    <path class="st0" d="M403.6,792.2c-.8-.5-1.5-1-2.3-1.6-2.9-2.1-5.7-4.3-8.4-6.6-1.4,3.4-2.7,6.9-4.1,10.3-12.8,31.7-28.2,61.9-42.1,91.4,0,0,0,0,0,0-15,26.8-32.7,50.6-54.3,70,.2.1.4.3.6.4,1.6,1,3.2,2.1,4.8,3.1,3.2,2,6.5,4,9.8,6,2.6,1.6,5.3,3.1,8,4.6,10-14,19-29.2,27.7-44.5,23.5-40.5,41.1-87.4,60.2-133.1Z"/>
    <path class="st0" d="M810.1,224.8c-14.4,6-28.4,10.9-38.7,15.3,0,0,0,0,0,0-29.5,10.5-59.1,13.2-88.4,16,0,0,0,0,0,0-.7,0-1.4,0-2.1.1-12.8.7-25.6,1.2-38.4,1.8,2.1,2.6,4.1,5.3,6,8.1,1.4,2.1,2.8,4.3,4.1,6.5,2.6,4.4,5,9,7.1,13.7,1.1,2.4,2.1,4.8,3,7.2.5,1.2.9,2.5,1.4,3.7,0,0,0,0,0,.1,0,0,0,.2,0,.3,0,.1,0,.2,0,.4,0,.1.1.3.3.4,0,0,.1.1.2.2.2.2.6.4,1.1.5,0,0,.2,0,.3,0,.3,0,.7.2,1.1.2,3.1-.1,6.1-.3,9.2-.4,4.6-.2,9.2-.4,13.8-.7.7,0,1.4,0,2.1-.1,0,0,0,0,0,0,24.3-1.6,49-3.7,73.1-11.5,0,0,0,0,0,0,4.9-1.4,9.8-2.9,14.6-4.7,7.8-2.7,15.4-5.8,22.9-9.1,5-2.2,9.7-5,14.7-7,0,0,0,0,0,0,11.9-5.9,23.6-12.4,35-19.5-4.2-12.1-8.9-23.9-14.1-35.4-9,5.2-18.3,10.7-28.3,13.7,0,0,0,0,0,0Z"/>
    <path class="st0" d="M234.2,388.1c29.9-27,51.5-63.6,69.1-104.1,26.8-60.9,43.3-131.6,67.2-195.3,1.8-4.9,3.7-9.7,5.6-14.5,6.2-15.4,13-30.2,20.6-44.1,2-3.7,3.9-7.5,6.1-11-2.7.7-5.3,1.4-8,2.1-5.7,1.6-11.3,3.3-16.8,5.1-.9,2.2-1.8,4.5-2.7,6.7-13.2,34.3-24,71.2-35.1,107.9-10.6,34.5-22.2,68.6-35.2,100.9,0,0,0,0,0,0-17.6,41.4-40.7,77.5-71,105.4-25.1,23.3-53.7,40.6-84.8,51.9v38.1c30.4-11.5,57-29.9,85-49.1,0,0,0,0,0,0Z"/>
    <path class="st0" d="M410.5,796.7c-6.1,14.8-12.1,29.7-18.2,44.6-13,31.5-28.6,61.4-42.6,90.7,0,0,0,0,0,0-8.4,14.7-17.6,28.5-27.8,41.1.3.2.6.3,1,.5,5.6,2.9,11.4,5.7,17.2,8.4,2.1-3.5,4.2-7.1,6.2-10.6,30-50.7,50.6-112,76.7-167.8-4.3-2.1-8.5-4.4-12.5-6.9Z"/>
    <path class="st0" d="M386.6,778.2c-2.7-2.6-5.3-5.3-7.8-8.1-.7-.7-1.3-1.5-1.9-2.3-10.6,24.6-22.3,48.4-33.1,71.7,0,0,0,0,0,0-19.8,36.1-44.5,66.8-76.5,89-1.9,1.3-3.8,2.6-5.8,3.9,1.5,1.3,2.9,2.5,4.4,3.7,5.7,4.7,11.7,9.3,17.8,13.6,1.6,1.1,3.2,2.3,4.8,3.4h0c20.9-20.5,36.8-46.9,52-74,17.7-31,31.9-65.8,46.1-100.9Z"/>
  </g>
  <g>
    <path class="st1" d="M870.4,477.7h0s-85,0-85,0c-.1,0-.2,0-.4.1,0,0,0,0,0,0-29,9-57.9,11.9-86.3,15,0,0,0,0,0,0-.7,0-1.4.1-2.1.2-28.6,2.3-57,3.8-84.9,8-7,4.1-13.6,8.6-19.9,13.6-5.1,4.1-10,8.4-14.6,13,0,0,0,0,0,0-1.9,1.9-3.8,3.9-5.7,5.9-3.9,4.3-7.6,8.8-11,13.4-3.4,4.7-6.7,9.5-9.6,14.5h0c5.8-2.4,11.7-4.7,17.6-6.7,5.4-1.8,10.9-3.4,16.5-4.8,12.8-3.2,25.7-5.5,38.6-7.3,23.4-3.2,47-4.7,70.8-6.5,4.5-.3,9-.7,13.5-1,.7,0,1.4,0,2.1-.2,0,0,0,0,0,0,23.8-2,48-3.9,71.6-11.3,0,0,0,0,0,0,4.8-1.3,9.7-2.6,14.5-4.1,7.7-2.4,15.3-5,22.8-7.9,5-1.9,9.8-4.2,14.8-6,0,0,0,0,0,0,13.6-5.9,27.1-12.3,40.2-19.5v-5.2c0-1.9-1.5-3.3-3.3-3.3Z"/>
    <path class="st1" d="M826.6,513.5s0,0,0,0c-15.3,4.8-29.8,8.5-38.9,12.2,0,0,0,0,0,0-28.8,8.7-57.6,11.7-85.9,14.8,0,0,0,0,0,0-.7,0-1.4.1-2.1.2-29,2.4-57.8,4.2-86,8.8-12.8,2.1-25.5,4.7-38.1,8.2-9.9,2.8-19.4,6.3-28.6,10.7h0c-3.5,6.6-6.6,13.4-9.2,20.5-1.6,4.2-3,8.5-4.3,12.9-.5,1.7-1,3.5-1.4,5.2-1.3,5.3-2.4,10.6-3.2,16h0s0,0,0,0c14-8,28.7-14.4,43.7-19.5,5.4-1.8,10.9-3.5,16.4-4.9,12.7-3.3,25.5-5.7,38.4-7.6,23.3-3.4,46.8-5.1,70.4-6.9,4.5-.4,9-.7,13.4-1.1.7,0,1.4-.1,2.1-.2,0,0,0,0,0,0,23.7-2.1,47.8-4,71.4-11.3,0,0,0,0,0,0,4.8-1.2,9.6-2.6,14.4-4,7.7-2.3,15.3-4.9,22.8-7.7,5-1.9,9.8-4.1,14.8-5.9,0,0,0,0,0,0,12.5-5.2,24.9-10.9,37-17.2v-41.6c-3,1.3-6.1,2.6-9.2,3.8-12,4.8-24.8,11-37.9,14.3Z"/>
    <path class="st1" d="M829.4,561.9s0,0,0,0c-15.4,4.6-30.1,8.2-38.9,11.7,0,0,0,0,0,0-28.7,8.4-57.3,11.4-85.5,14.6,0,0,0,0,0,0-.7,0-1.4.1-2.1.2-28.9,2.6-57.6,4.6-85.7,9.4-12.8,2.2-25.4,4.9-37.9,8.5-18.1,5.2-35.3,13.2-51.3,23.6,0,.1,0,.3,0,.4-.6,6-1,12-1,18.2v6c0,.2,0,.5,0,.7.1.7.4,1.2.9,1.7.5.5,1,.8,1.7.9.2,0,.5,0,.7,0h31.4c5-2,10.1-4,15.1-5.7,5.4-1.8,10.8-3.5,16.3-4.9,12.6-3.3,25.4-5.8,38.2-7.8,23.1-3.6,46.6-5.4,70.1-7.4,4.5-.4,8.9-.8,13.4-1.2.7,0,1.4-.1,2-.2,0,0,0,0,0,0,23.6-2.2,47.6-4,71.1-11.2,0,0,0,0,0,0,4.8-1.2,9.6-2.5,14.4-3.9,7.7-2.3,15.3-4.7,22.8-7.5,5-1.8,9.8-4,14.8-5.7,0,0,0,0,0,0,11.4-4.6,22.7-9.5,33.8-15v-41.5c-2.1.8-4.2,1.6-6.3,2.5-12,4.5-25,10.4-38.1,13.6Z"/>
    <path class="st1" d="M840.4,657.5h30.1c.4,0,.7,0,1,.1.2,0,.3-.1.5-.2,0,0,0,0,0,0,.4-.2.8-.5,1.1-.9,0,0,0,0,0-.1,0,0,.1-.2.2-.3,0,0,0-.2.1-.3,0,0,0-.2,0-.2,0-.1,0-.2.1-.4,0,0,0-.1,0-.2,0-.2,0-.4,0-.6v-7.9c-.2,0-.3.1-.5.2-10.3,3.4-21.6,7.8-32.8,10.8Z"/>
    <path class="st1" d="M832.1,610.4s0,0,0,0c-15.6,4.4-30.3,7.8-38.9,11.2,0,0,0,0,0,0-28.6,8.1-57.1,11.2-85.1,14.4,0,0,0,0,0,0-.7,0-1.4.1-2,.2-28.8,2.7-57.4,5-85.4,10-12.7,2.3-25.3,5.1-37.7,8.8-2.9.9-5.9,1.8-8.8,2.8h108c.4-.2.9-.3,1.6-.3h140.8c1.3-.4,2.5-.9,3.8-1.3,5-1.7,9.8-3.8,14.8-5.5,0,0,0,0,0,0,10.3-4,20.5-8.3,30.6-13v-41.5c-1.1.4-2.3.8-3.4,1.2-12,4.3-25.1,9.8-38.2,12.9Z"/>
    <path class="st1" d="M704.3,487.8c.7,0,1.4,0,2.1-.2,0,0,0,0,0,0,22.2-1.8,44.8-3.6,67-9.9h-75.5c-16.2,0-31.9,2.3-46.7,6.5-8.1,2.3-16,5.2-23.5,8.6-.9.4-1.8.8-2.7,1.3,21.8-2.6,43.8-3.9,65.8-5.3,4.5-.3,9-.6,13.6-1Z"/>
  </g>
  <path class="st1" d="M870.4,657.8c.4,0,.8,0,1.1-.2h0c-.3,0-.6-.1-1-.1h-30.1c-.4,0-.7.2-1.1.3h31.1Z"/>
  <path class="st1" d="M823.8,657.8c.3,0,.6-.2.8-.3h-140.8c-.6,0-1.2.1-1.6.3,0,0,0,0,0,0h141.5Z"/>
</svg>